<?xml version="1.0" encoding="UTF-8" standalone="no"?>
<svg
   inkscape:version="1.2.2 (b0a84865, 2022-12-01)"
   sodipodi:docname="icml-navbar-logo.svg"
   viewBox="0 0 99.264 97.665001"
   height="97.665001"
   width="99.264"
   xml:space="preserve"
   id="svg604"
   version="1.1"
   xmlns:inkscape="http://www.inkscape.org/namespaces/inkscape"
   xmlns:sodipodi="http://sodipodi.sourceforge.net/DTD/sodipodi-0.dtd"
   xmlns="http://www.w3.org/2000/svg"
   xmlns:svg="http://www.w3.org/2000/svg"
   xmlns:rdf="http://www.w3.org/1999/02/22-rdf-syntax-ns#"
   xmlns:cc="http://creativecommons.org/ns#"
   xmlns:dc="http://purl.org/dc/elements/1.1/"><metadata
     id="metadata610"><rdf:RDF><cc:Work
         rdf:about=""><dc:format>image/svg+xml</dc:format><dc:type
           rdf:resource="http://purl.org/dc/dcmitype/StillImage" /></cc:Work></rdf:RDF></metadata><defs
     id="defs608"><clipPath
       id="clipPath624"
       clipPathUnits="userSpaceOnUse"><path
         id="path622"
         d="M 0,108 H 216 V 0 H 0 Z" /></clipPath></defs><sodipodi:namedview
     inkscape:current-layer="g808"
     inkscape:window-maximized="0"
     inkscape:window-y="475"
     inkscape:window-x="1109"
     inkscape:cy="46.248"
     inkscape:cx="33.481091"
     inkscape:zoom="9.7517731"
     fit-margin-bottom="4"
     fit-margin-right="4"
     fit-margin-left="4"
     fit-margin-top="4"
     lock-margins="true"
     showgrid="false"
     id="namedview606"
     inkscape:window-height="926"
     inkscape:window-width="1692"
     inkscape:pageshadow="2"
     inkscape:pageopacity="0"
     guidetolerance="10"
     gridtolerance="10"
     objecttolerance="10"
     borderopacity="1"
     bordercolor="#666666"
     pagecolor="#ffffff"
     inkscape:showpageshadow="2"
     inkscape:pagecheckerboard="0"
     inkscape:deskcolor="#d1d1d1" /><g
     transform="matrix(1.3333333,0,0,-1.3333333,-9.4037331,115.5584)"
     inkscape:label="ICML Logo 2018"
     inkscape:groupmode="layer"
     id="g612"><g
       id="g618"><rect
         style="fill:#231f20;fill-opacity:1;stroke:#ffffff;stroke-width:0;stroke-dasharray:none"
         id="rect1384"
         width="8.6138182"
         height="8.8445454"
         x="51.121708"
         y="-77.901161"
         transform="scale(1,-1)" /><rect
         style="fill:#231f20;fill-opacity:1;stroke:#ffffff;stroke-width:0;stroke-dasharray:none"
         id="rect1384-5"
         width="7.7678185"
         height="7.5370908"
         x="55.890072"
         y="-63.634525"
         transform="scale(1,-1)" /><rect
         style="fill:#231f20;fill-opacity:1;stroke:#ffffff;stroke-width:0;stroke-dasharray:none"
         id="rect1384-5-9"
         width="4.6914554"
         height="4.6145458"
         x="60.543072"
         y="-70.671707"
         transform="scale(1,-1)" /><rect
         style="fill:#231f20;fill-opacity:1;stroke:#ffffff;stroke-width:0;stroke-dasharray:none"
         id="rect1384-9"
         width="12.228545"
         height="12.69"
         x="43.200073"
         y="-57.251072"
         transform="scale(1,-1)" /><g
         clip-path="url(#clipPath624)"
         id="g620"><g
           id="g511"
           transform="translate(4.5,-4.5)"><g
             transform="translate(25.2256,57.9727)"
             id="g792"><path
               id="path794"
               style="fill:#94d222;fill-opacity:1;fill-rule:nonzero;stroke:none"
               d="m 0,0 c 0,-0.682 -0.553,-1.235 -1.235,-1.235 h -8.4 c -0.682,0 -1.236,0.553 -1.236,1.235 v 8.4 c 0,0.683 0.554,1.236 1.236,1.236 h 8.4 C -0.553,9.636 0,9.083 0,8.4 Z" /></g><g
             transform="translate(35.6738,68.8438)"
             id="g796"><path
               id="path798"
               style="fill:#2a419e;fill-opacity:1;fill-rule:nonzero;stroke:none"
               d="m 0,0 c 0,-0.682 -0.554,-1.235 -1.235,-1.235 h -7.11 c -0.682,0 -1.236,0.553 -1.236,1.235 v 7.11 c 0,0.682 0.554,1.235 1.236,1.235 h 7.11 C -0.554,8.345 0,7.792 0,7.11 Z" /></g><g
             transform="translate(23.3193,75.0635)"
             id="g800"><path
               id="path802"
               style="fill:#ed1e24;fill-opacity:1;fill-rule:nonzero;stroke:none"
               d="m 0,0 c 0,-0.683 -0.553,-1.235 -1.234,-1.235 h -4.924 c -0.682,0 -1.236,0.552 -1.236,1.235 v 4.923 c 0,0.682 0.554,1.236 1.236,1.236 h 4.924 C -0.553,6.159 0,5.605 0,4.923 Z" /></g><g
             transform="translate(12.9688,69.1479)"
             id="g804"><path
               id="path806"
               style="fill:#f79011;fill-opacity:1;fill-rule:nonzero;stroke:none"
               d="M 0,0 C 0,-0.682 -0.554,-1.235 -1.236,-1.235 H -4.68 c -0.682,0 -1.236,0.553 -1.236,1.235 v 3.444 c 0,0.683 0.554,1.236 1.236,1.236 h 3.444 C -0.554,4.68 0,4.127 0,3.444 Z" /></g><g
             transform="translate(60.2002,72.3828)"
             id="g808"><path
               id="path810"
               style="fill:#f9f9f9;fill-opacity:1;fill-rule:nonzero;stroke:none"
               d="m 0,0 c 0,-0.682 -0.554,-1.235 -1.235,-1.235 h -1.412 c -0.682,0 -1.236,0.553 -1.236,1.235 v 1.412 c 0,0.682 0.554,1.234 1.236,1.234 h 1.412 C -0.554,2.646 0,2.094 0,1.412 Z m -1.479,-10.26 c 0,-0.682 -0.553,-1.235 -1.236,-1.235 h -4.553 c -0.682,0 -1.236,0.553 -1.236,1.235 v 4.554 c 0,0.683 0.554,1.236 1.236,1.236 h 4.553 c 0.683,0 1.236,-0.553 1.236,-1.236 z m -8.596,-10.629 c 0,-0.681 -0.554,-1.235 -1.236,-1.235 h -8.159 c -0.681,0 -1.234,0.554 -1.234,1.235 v 8.159 c 0,0.682 0.553,1.235 1.234,1.235 h 8.159 c 0.682,0 1.236,-0.553 1.236,-1.235 z m -2.033,27.753 c 0,0.683 0.552,1.236 1.234,1.236 h 2.983 c 0.682,0 1.236,-0.553 1.236,-1.236 V 3.882 c 0,-0.682 -0.554,-1.236 -1.236,-1.236 h -2.983 c -0.682,0 -1.234,0.554 -1.234,1.236 z M 10.446,-13.423 C 9.674,-13.81 9.48,-14.003 9.48,-12.94 v 6.275 c 0,1.452 0.548,20.951 -21.916,20.951 -6.089,0 -11.648,-1.545 -11.648,-2.994 0,-1.448 -0.033,-3.475 -0.033,-4.634 0,-1.244 0.675,-1.852 1.641,-1.852 h 5.6 c 0.677,0 1.737,-0.071 1.737,-1.265 v -6.248 c 0,-1.641 -0.809,-1.858 -1.678,-1.858 h -5.792 c -0.869,0 -1.702,-0.459 -1.702,-1.521 v -5.873 c 0,-0.854 -0.385,-1.561 -1.64,-1.561 h -5.813 c -0.772,0 -1.606,-0.964 -1.606,-2.412 0,-1.448 -0.016,-4.443 -0.016,-5.312 0,-0.869 -0.772,-0.772 -2.703,-0.772 0,0 0,-2.799 1.255,-5.986 0.671,-1.704 1.738,-2.123 3.572,-1.544 0,0 0.222,-4.619 1.284,-7.515 1.062,-2.896 1.999,-4.748 4.992,-6.871 2.994,-2.125 3.283,-2.704 5.31,-4.345 2.027,-1.642 2.896,-3.186 8.014,-3.186 5.213,0 6.468,2.027 8.592,4.151 2.124,2.125 4.56,2.207 7.53,6.663 2.511,3.765 2.647,6.812 2.993,11.2 0,0 2.704,-1.352 3.573,1.351 0.532,1.657 2.123,9.075 2.703,13.033 0.579,3.959 -2.51,2.028 -3.283,1.642" /></g><rect
             style="fill:#000000;fill-opacity:0;stroke:#ffffff;stroke-width:0;stroke-dasharray:none"
             id="rect601"
             width="9.9981823"
             height="8.3061819"
             x="45.775711"
             y="-81.862801"
             transform="scale(1,-1)" /></g></g></g></g></svg>
