<svg xmlns="http://www.w3.org/2000/svg" width="400" height="400" viewBox="0 0 400 400">
  <g fill-rule="evenodd">
    <path d="M205.8 81.6c-.136.22-.597.4-1.024.4s-.776.18-.776.4.45.4 1 .4 1-.18 1-.4.709-.4 1.576-.4 1.688.18 1.824.4.672.4 1.19.4c.519 0 1.003.135 1.077.3.073.165 1.123.77 2.333 1.344a944 944 0 0 1 5.211 2.5c1.656.801 3.411 1.456 3.9 1.456s.892.135.896.3c.006.288 1.233.907 7.393 3.727 3.697 1.693 3.387-.158 3.394 20.296l.006 18.122 1.3-.722c.715-.398 1.39-.826 1.5-.952s.515-.346.9-.488c1.067-.393.834-.998-.3-.781-.55.105-1 .35-1 .545 0 .194-.181.353-.403.353-.266 0-.382-5.891-.34-17.277l.064-17.276-1.345-1.124c-.74-.618-1.578-1.123-1.861-1.123s-.515-.18-.515-.4-.349-.4-.776-.4-.888-.18-1.024-.4-.507-.4-.826-.4-1.511-.45-2.651-1-2.309-1-2.598-1-.525-.18-.525-.4-.225-.401-.5-.402-1.726-.631-3.224-1.4-3.074-1.398-3.5-1.398-.777-.135-.777-.3c-.001-.165-.856-.631-1.9-1.036-2.63-1.019-3.783-1.499-4.594-1.911-.944-.48-3.799-.448-4.105.047m-5.575 2.221c-1.086.538-2.211.979-2.5.979s-.525.18-.525.4-.21.4-.466.4c-.746 0-3.534 1.323-3.534 1.677 0 .588 1.133.336 3.038-.677 1.035-.55 2.119-1 2.409-1 .526 0 2.839-1.198 4.342-2.248 1.396-.977-.496-.655-2.764.469m6.079-.415c-.823.302-2.649 1.099-4.057 1.772-1.409.672-2.726 1.222-2.927 1.222s-1.616.629-3.143 1.399c-1.527.769-2.917 1.399-3.088 1.4s-1.639.631-3.262 1.401-3.097 1.4-3.277 1.4c-.607 0-4.136 1.798-4.143 2.111-.006.265 6.489 3.489 7.028 3.489.103 0 1.515.63 3.138 1.4s3.063 1.4 3.2 1.4 1.577.63 3.2 1.4 3.069 1.4 3.214 1.4 1.39.543 2.766 1.207l2.503 1.207 3.046-1.407c1.675-.774 3.327-1.407 3.672-1.407.344 0 .626-.18.626-.4s.225-.402.5-.404 1.4-.446 2.5-.987 2.315-.99 2.7-.996.7-.149.7-.315c0-.299 1.076-.839 3.388-1.702.654-.244 2.494-1.063 4.089-1.82s3.085-1.376 3.312-1.376c1.823 0-.584-1.672-4.189-2.91-.66-.227-1.678-.745-2.262-1.151S224.271 90 224.02 90s-2.122-.81-4.157-1.8-3.817-1.8-3.96-1.8c-.243 0-5.651-2.433-7.198-3.238-.382-.199-.742-.349-.8-.334-.058.016-.778.276-1.601.578M189.2 88.765c-1.611.854-3.769 1.835-4.035 1.835-.164 0-.433.135-.598.3s-.615.3-1 .3-.76.135-.834.3-.853.66-1.733 1.101l-1.6.8-.105 14.5c-.099 13.629-.147 14.477-.8 14.123-12.215-6.613-13.379-6.719-22.828-2.073-2.427 1.194-3.746 2.378-2.064 1.853.548-.171 1.886-.737 2.972-1.257 1.086-.521 2.205-.947 2.486-.947.526 0 4.042-1.825 4.719-2.449.484-.447 2.22-.46 2.22-.018 0 .184 1.035.839 2.3 1.456s2.613 1.277 2.995 1.466.952.345 1.266.345.632.135.706.3c.207.467 3.07 1.7 3.947 1.7.432 0 .786.18.786.4s.345.4.767.4c.421 0 .857.225.968.5s.216-6.475.233-15c.032-15.368.039-15.5.855-15.5.453 0 1.629-.45 2.614-1s2.03-1 2.321-1c.84 0 5.064-2.245 4.772-2.537-.324-.324-.561-.305-1.33.102m42 7.364c-.99.486-3.06 1.41-4.6 2.053-1.54.644-3.39 1.496-4.112 1.894s-1.469.724-1.661.724-1.851.698-3.688 1.551c-1.836.853-4.645 2.14-6.242 2.86l-2.903 1.31.103 26.606.103 26.605 2.6 1.334c1.43.734 3.41 1.634 4.4 2s1.971.816 2.18 1c1.748 1.536 1.82 1.043 1.82-12.433 0-7.022.114-13.064.252-13.425.199-.519 5.616-3.408 6.389-3.408.1 0 1.509-.63 3.132-1.4s3.12-1.4 3.327-1.4.676-.331 1.042-.736c.786-.868.842-35.691.058-35.908-.22-.061-1.21.286-2.2.773M162 119.257c-1.43.69-3.005 1.409-3.5 1.598-1.525.584-3.09 1.332-3.3 1.577-.11.129-1.19.572-2.4.985s-2.678 1.074-3.262 1.468-1.262.715-1.508.715c-.245 0-1.928.697-3.738 1.549-1.811.851-3.717 1.68-4.237 1.841-1.246.386-.62.969 2.345 2.188 1.21.497 3.306 1.425 4.657 2.063 1.352.637 2.549 1.159 2.66 1.159s1.748.72 3.635 1.6 3.511 1.6 3.61 1.6 1.588.659 3.309 1.464c1.721.806 3.669 1.465 4.329 1.465s2.608-.659 4.329-1.465c1.721-.805 3.211-1.464 3.31-1.464s1.892-.81 3.982-1.8 3.931-1.8 4.09-1.8c.159-.001 1.549-.628 3.089-1.394s3.027-1.396 3.305-1.399c.613-.008 2.19-.861 2.569-1.388.151-.21-.209-.605-.8-.878s-3.557-1.676-6.592-3.118c-3.034-1.443-5.631-2.623-5.77-2.623-.231 0-2.15-.887-8.736-4.04-2.917-1.396-2.255-1.408-5.376.097m-11.4 2.88c-.66.249-1.29.545-1.4.658-.301.31-1.963 1.036-4.189 1.83-1.093.39-2.342 1.039-2.775 1.442s-1.023.733-1.311.733-.525.163-.525.363c0 .204.612.174 1.4-.068.77-.236 1.4-.579 1.4-.762s.36-.333.8-.333.8-.18.8-.4.467-.4 1.038-.4c1.02 0 3.433-1.11 3.695-1.7.074-.165.479-.3.9-.3s.767-.18.767-.4.27-.4.6-.4.6-.18.6-.4c0-.475-.219-.459-1.8.137m93.712 3.038c-2.26 1.13-3.294 2.257-1.708 1.863.658-.163 1.256-.464 1.329-.668.074-.203.479-.37.9-.37s.767-.18.767-.4c0-.957 4.68.445 5.612 1.682.117.155.605.252 1.086.216.817-.062.829-.105.185-.682-2.579-2.311-5.611-2.92-8.171-1.641m2.332 1.154c-.112.182-.933.57-1.824.864s-1.62.686-1.62.871-.274.336-.608.336c-.335 0-2.09.695-3.9 1.544s-4.822 2.218-6.692 3.042c-11.98 5.274-11.199 4.657-7.848 6.192 1.468.672 2.741 1.222 2.83 1.222s1.3.518 2.69 1.151 4.058 1.827 5.928 2.652l5.2 2.296c.99.438 2.509 1.134 3.375 1.548 2.214 1.058 2.942.967 7.124-.892 2.036-.904 5.141-2.276 6.901-3.048s4.338-1.923 5.728-2.556 2.6-1.151 2.688-1.151c.431 0 4.567-2.048 4.757-2.356.303-.49-.319-.891-3.773-2.429a706 706 0 0 1-11.84-5.453c-1.122-.529-2.172-.962-2.334-.962-.494 0-5.617-2.58-5.759-2.9-.178-.399-.769-.382-1.023.029M138.6 127.6c-.136.22-.597.4-1.024.4s-.776.18-.776.4.152.4.339.4c.442 0 2.861-1.208 2.861-1.429 0-.347-1.161-.157-1.4.229m115.172.046c-.121.195.061.354.404.354s.624.18.624.4.255.4.567.4.626.135.7.3c.231.521 3.487 2.055 4.939 2.328.767.143 1.394.377 1.394.519 0 .322 1.809 1.116 3.4 1.492.66.156 1.29.391 1.4.523.324.386 2.541 1.669 3.3 1.909.385.122.7.381.7.576s.405.356.9.359c1.725.012 1.727.025 1.713 15.532-.007 8.216.11 15.137.261 15.381.3.487 2.326-.373 2.326-.987 0-.182.36-.332.8-.332s.8-.18.8-.4-.259-.4-.576-.4-.688.18-.824.4c-.835 1.35-.999-.791-1.095-14.3L275.4 137l-2-1c-1.1-.55-2.06-1.135-2.133-1.3-.074-.165-.468-.3-.877-.3-.408 0-.844-.164-.968-.365-.125-.201-.944-.487-1.822-.635s-1.697-.434-1.822-.635c-.124-.201-.492-.365-.818-.365-.327 0-.95-.332-1.386-.738s-1.778-1.073-2.983-1.483-2.191-.866-2.191-1.015-.315-.375-.7-.503a79 79 0 0 1-2.205-.801c-.827-.313-1.603-.409-1.723-.214M136.077 140.5c-.05 7.182-.22 11.1-.482 11.1-.223 0-.763-.18-1.2-.4l-1.59-.8c-.437-.22-1.07-.4-1.408-.4s-1.284-.416-2.105-.925c-2.18-1.353-7.583-3.875-8.299-3.875-.706 0-6.689 2.759-6.997 3.227-.112.17-.699.434-1.304.586s-1.198.436-1.319.631c-.41.663.899.361 2.789-.644 1.034-.55 2.107-1 2.384-1s1.249-.36 2.16-.8c.91-.44 1.929-.8 2.263-.8s1.248.36 2.031.8 1.779.8 2.212.8.788.18.788.4.271.4.602.4 1.535.45 2.675 1 2.294 1 2.565 1 .551.135.625.3 1.033.772 2.133 1.348l2 1.048-.105-9.648c-.158-14.434-.331-15.825-.418-3.348m52.523-9.085c-.66.311-2.91 1.309-5 2.219-6.382 2.779-10.088 4.413-12.6 5.554-1.32.6-3.081 1.336-3.914 1.637-2.035.734-1.921-.946-1.796 26.497l.11 24.323 1.8.935c.99.515 2.52 1.236 3.4 1.602s2.292 1.015 3.138 1.442 1.701.776 1.9.776c.209 0 .362-5.493.362-12.971 0-14.114-.033-13.904 2.275-14.484.561-.14 2.263-.861 3.783-1.6s2.89-1.345 3.044-1.345 1.5-.572 2.989-1.271l2.709-1.271v-16.329c0-17.66.12-16.804-2.2-15.714m81.193 8.633a130 130 0 0 0-4.833 2.166c-1.122.542-2.16.986-2.308.986s-1.791.72-3.652 1.6-3.495 1.6-3.632 1.6c-.136 0-1.764.72-3.616 1.6s-3.523 1.6-3.713 1.6-.454.405-.587.9c-.373 1.392-.283 102.831.091 103.422.4.63 4.668-.917 10.057-3.646l1-.507.2-37.522.2-37.521 1.4-.5c1.551-.555 4.516-1.881 9.5-4.251l3.3-1.569v-14.579c0-8.019-.138-14.665-.307-14.769s-1.563.341-3.1.99m-150.413 7.886c-.209.184-1.28.664-2.38 1.068-1.1.403-2.755 1.153-3.677 1.666s-1.872.932-2.111.932-1.762.63-3.385 1.4-3.054 1.4-3.181 1.4-1.721.708-3.542 1.573c-1.822.866-3.82 1.767-4.44 2.003-1.547.588-1.228 1.11 1.344 2.202 2.221.943 5.191 2.243 12.792 5.6a550 550 0 0 0 7.047 3.053l2.846 1.199 2.12-.835c1.166-.46 3.395-1.442 4.953-2.183 4.024-1.913 10.181-4.611 10.535-4.617.164-.003 1.303-.514 2.53-1.137 1.228-.623 2.803-1.331 3.5-1.574 1.957-.682 1.647-.949-4.031-3.475-2.915-1.296-5.75-2.652-6.3-3.013s-1.63-.892-2.4-1.18-2.66-1.101-4.2-1.807c-6.095-2.796-7.102-3.082-8.02-2.275m-10.58 2.445c-.33.182-1.59.78-2.8 1.328l-3.6 1.632a20 20 0 0 0-2.6 1.465l-1.2.828 1.2-.278c.66-.153 1.26-.43 1.333-.616.074-.186.479-.338.9-.338s.767-.18.767-.4.355-.4.789-.4c.886 0 5.338-1.994 5.544-2.484.074-.174.389-.316.7-.316.312 0 .567-.18.567-.4 0-.475-.762-.485-1.6-.021m-13.164 5.844c-.75.252-1.77.85-2.267 1.328l-.903.87.067 29.979c.059 26.347-.006 30-.533 30.143-.334.092-.201.185.3.211l.9.046v-30.4c0-30.133.007-30.4.8-30.4.44 0 .8-.18.8-.4s.36-.4.8-.4.8-.18.8-.4.259-.4.576-.4.669-.15.783-.333c.278-.451-.481-.395-2.123.156m106.164 3.374c-2.704 1.278-9.794 4.403-9.992 4.403-.102 0-1.136.434-2.297.963-6.939 3.167-10.33 4.637-10.696 4.637-.228 0-.415.27-.415.6s.206.6.458.6 1.768.63 3.369 1.4 3.014 1.4 3.141 1.4c.126 0 1.355.52 2.731 1.155s4.841 2.186 7.701 3.446 5.748 2.544 6.419 2.852c1.117.514 1.382.478 3.2-.444 1.089-.553 2.121-1.006 2.292-1.007.172-.001 1.639-.632 3.262-1.402s3.041-1.4 3.153-1.4c.111 0 1.524-.609 3.138-1.354 5.91-2.726 10.347-4.646 10.737-4.646.874 0 .325-.821-.901-1.347-1.444-.619-5.628-2.534-9.3-4.258a418 418 0 0 0-6.6-2.982c-2.31-1.02-4.97-2.206-5.911-2.634-.941-.429-1.751-.77-1.8-.759s-.809.36-1.689.777m-57.4 1.163c-.99.397-2.79 1.176-4 1.73-2.236 1.025-5.568 2.497-12.4 5.48-2.09.912-4.43 1.976-5.2 2.364l-1.4.705-.101 52.081c-.059 29.924.048 52.08.251 52.08.194 0 1.41-.464 2.702-1.03l5.232-2.3 2.885-1.27.115-34.529.116-34.528 2-.818c1.1-.45 3.17-1.355 4.6-2.012s3.725-1.645 5.1-2.196l2.5-1.002v-17.758c0-9.766-.135-17.749-.3-17.738s-1.11.343-2.1.741m140.3 1.104c-.385.107-.7.328-.7.491s-.63.543-1.4.845-1.4.696-1.4.875-.405.328-.9.331c-.99.007-2.199.629-1.867.961.229.228 4.442-1 4.767-1.391.11-.132.785-.495 1.5-.806s1.303-.746 1.306-.968q.006-.402.3-.001c.162.22.834.67 1.494.999s1.29.689 1.4.799c.475.477 2.038 1.201 2.592 1.201.838 0 3.808 1.322 3.808 1.694 0 .168.36.306.8.306s.8.18.8.4.345.4.768.4c.679 0 3.096 1.065 3.632 1.6.492.492 2.047 1.2 2.634 1.2.637 0 3.378 1.15 3.766 1.58.11.122.65.421 1.2.666.55.244 1.72.793 2.6 1.219l1.6.774.102 30.48c.088 26.027.186 30.481.671 30.481.313 0 1.778.63 3.255 1.4s2.885 1.399 3.129 1.398 1.703.609 3.243 1.355c7.321 3.546 8.856 4.247 9.299 4.247.262 0 1.067.325 1.789.721.722.397 2.212 1.044 3.312 1.438s3.273 1.33 4.83 2.079 3.221 1.362 3.7 1.362c.478 0 .87.18.87.4s.27.4.6.4.6.18.6.4.36.4.8.4.8.16.8.357.47.474 1.044.618c1.293.325 4.683 1.877 4.96 2.271.112.16.742.413 1.4.564 1.695.386 3.396 1.132 3.396 1.488 0 .166.193.302.429.302 1.318 0 1.596 1.141 1.483 6.084L363 268.2l-2.856 1.444c-1.571.794-3.776 1.775-4.9 2.179s-2.044.879-2.044 1.056-.349.321-.776.321-.876.16-.997.356-.652.464-1.181.597c-.53.133-2.286.852-3.904 1.598a534 534 0 0 1-6.742 3.033c-2.09.921-4.69 2.112-5.779 2.646s-2.146.97-2.35.97-1.745.647-3.422 1.437c-1.677.791-3.409 1.585-3.849 1.765-.44.181-1.97.865-3.4 1.521s-4.085 1.842-5.9 2.635c-7.913 3.457-10.07 4.413-12.836 5.689-1.614.744-3.027 1.353-3.138 1.353-.112 0-1.53.63-3.153 1.4s-3.063 1.4-3.202 1.4-1.767.72-3.619 1.6-3.459 1.6-3.571 1.6-1.531.63-3.154 1.4-3.063 1.4-3.2 1.4-1.577.63-3.2 1.4-3.041 1.4-3.153 1.4c-.111 0-1.524.609-3.138 1.353a412 412 0 0 1-6.136 2.755 2127 2127 0 0 0-15.8 6.979c-.77.34-2.682 1.224-4.249 1.965s-3.046 1.348-3.286 1.348-1.208.419-2.151.932-2.344 1.165-3.114 1.448c-1.381.509-3.227 1.338-9.295 4.174-1.702.795-3.205 1.446-3.339 1.446s-1.57.63-3.193 1.4-3.033 1.4-3.134 1.4-1.321.526-2.711 1.168c-5.597 2.587-7.432 3.016-8.508 1.993-.209-.198-.704-.361-1.1-.361s-.72-.136-.72-.302c0-.299-1.076-.839-3.388-1.702-.654-.244-2.473-1.053-4.042-1.797-1.569-.745-3.33-1.474-3.912-1.62s-1.058-.382-1.058-.525c0-.259-1.16-.827-3.394-1.66-1.63-.608-3.962-1.704-4.206-1.975-.11-.123-.92-.471-1.8-.775-2.677-.922-4.6-1.816-4.6-2.138 0-.168-.272-.306-.605-.306s-.918-.151-1.3-.336c-.382-.184-2.045-.996-3.695-1.804s-3.281-1.467-3.624-1.465-.972-.259-1.4-.582-1.091-.593-1.476-.6-.7-.193-.7-.413-.36-.4-.8-.4-.8-.18-.8-.4-.315-.401-.7-.402-1.926-.631-3.424-1.4c-1.499-.769-3.074-1.398-3.5-1.398s-.776-.166-.776-.368c0-.203-.538-.487-1.195-.631-.658-.144-1.299-.429-1.424-.632-.126-.203-.578-.369-1.005-.369s-.776-.18-.776-.4-.435-.4-.967-.4c-.531 0-1.026-.135-1.1-.3-.233-.525-2.626-1.7-3.461-1.7-.443 0-.872-.201-.954-.446s-.467-.38-.856-.3c-.493.102-.123.45 1.215 1.146 1.058.55 1.983 1.135 2.056 1.3.074.165.468.3.877.3.408 0 .854.18.99.4s.571.4.967.4c.395 0 1.928.63 3.405 1.4s2.928 1.4 3.224 1.4c.295 0 .597.135.671.3.211.476 4.47 2.5 5.26 2.5.393 0 1.378.45 2.187 1s1.694 1 1.967 1c.272 0 1.175.39 2.007.868 2.681 1.538 4.487 2.347 5.814 2.605.714.139 1.388.359 1.498.49.334.396 3.334 1.926 4.4 2.244.55.164 1.45.609 2 .989 1.258.869 5.598 2.494 5.606 2.098.003-.162.138-.106.3.124.355.505 6.16 3.382 6.824 3.382.258 0 .47.136.47.302 0 .342 1.34.953 4.042 1.843 1.013.333 2.659 1.062 3.657 1.62.999.557 2.737 1.376 3.863 1.82l2.048.807 2.695-1.065c1.482-.587 3.322-1.485 4.088-1.997.766-.511 1.713-.93 2.104-.93.825 0 4.441-1.615 4.632-2.068.071-.169.748-.423 1.505-.565s1.473-.417 1.594-.612.569-.355.996-.355.776-.136.776-.302c0-.339 1.323-.965 4-1.894 1.607-.557 3.428-1.381 9.6-4.341.99-.475 1.86-.998 1.933-1.163.074-.165.599-.3 1.167-.3s3.596-1.26 6.728-2.8 5.962-2.8 6.292-2.8c.329 0 1.831-.606 3.339-1.347 3.123-1.534 7.159-3.394 8.341-3.842 1.921-.73 2.978-1.185 5.8-2.5 6.013-2.801 7.629-3.511 7.999-3.511.207 0 1.018-.36 1.801-.8s1.689-.8 2.012-.8.588-.166.588-.368c0-.203.538-.487 1.195-.631.658-.144 1.299-.429 1.424-.632.126-.203.578-.369 1.005-.369s.776-.138.776-.306c0-.326 2.925-1.694 3.622-1.694.229 0 1.162-.36 2.072-.8s1.892-.8 2.181-.8.525-.18.525-.4.185-.4.411-.4c.364 0 5.577-2.293 7.202-3.168.337-.182 1.19-.457 1.896-.612.705-.155 1.385-.448 1.51-.651.126-.203.578-.369 1.005-.369s.776-.18.776-.4.27-.4.6-.4.6-.18.6-.4.357-.4.794-.4 1.922-.587 3.3-1.305 3.226-1.545 4.106-1.839c1.364-.455 8.524-3.726 10.695-4.885.382-.204.938-.371 1.237-.371.448 0 4.295-1.738 7.163-3.237.382-.2.967-.363 1.3-.363s.605-.18.605-.4.326-.4.724-.4 1.072-.264 1.5-.587 1.007-.593 1.29-.6c.455-.012 4.19-1.704 10.265-4.653 1.088-.528 2.292-.96 2.676-.96s.809-.18.945-.4.597-.4 1.024-.4.776-.18.776-.4.345-.4.767-.4c.421 0 .826-.135.9-.3.073-.165.673-.577 1.333-.915l1.2-.616v-11.963l-2.568-1.28c-1.413-.704-2.673-1.262-2.8-1.24-.326.058-1.791-.577-2.032-.879-.297-.374-3.754-1.93-4.96-2.233-.576-.144-1.146-.423-1.267-.618-.121-.196-.57-.356-.997-.356s-.776-.136-.776-.302c0-.316-1.486-1.02-3.2-1.516-.55-.159-1.09-.403-1.2-.541-.402-.506-6.597-3.241-7.34-3.241-.282 0-2.461-.99-4.842-2.2s-4.478-2.2-4.659-2.2c-.316 0-3.043-1.228-9.645-4.344L315.227 235l-.04-11.2c-.022-6.16-.042-19.035-.043-28.612-.004-21.526-.165-22.388-4.172-22.388-.498 0-.965-.135-1.039-.3-.195-.44-4.23-2.5-4.897-2.5-.313 0-.629-.142-.703-.316-.231-.547-4.709-2.484-5.744-2.484-.544 0-.989-.18-.989-.4s-.287-.4-.638-.4-1.116-.335-1.7-.744-1.782-1.074-2.662-1.479c-.88-.404-1.69-.845-1.8-.979-.654-.797-4.786-1.7-6.1-1.334m-.1 2.497c-.66.387-2.1 1.035-3.2 1.44s-2.18.867-2.4 1.026c-.351.254-4.805 2.259-14.4 6.482-3.863 1.701-4.181 2.041-2.526 2.7.729.291 2.644 1.128 4.255 1.86s3.015 1.331 3.119 1.331 1.912.81 4.017 1.8c2.104.99 3.98 1.8 4.168 1.8s.933.322 1.655.716 2.529 1.225 4.017 1.847l2.705 1.131 2.095-.888a150 150 0 0 0 4.552-2.047c1.352-.637 2.559-1.159 2.682-1.159.124 0 1.358-.524 2.743-1.164 3.591-1.659 9.459-4.266 11.218-4.983 1.472-.601 2.081-1.853.9-1.853-.329 0-1.835-.63-3.346-1.4s-2.87-1.4-3.019-1.4-1.569-.613-3.154-1.363c-4.527-2.141-8.34-3.864-10.081-4.554-.88-.349-2.14-.96-2.8-1.357-1.444-.87-1.662-.867-3.2.035m-56.8 7.404c-.66.301-2.593 1.197-4.295 1.991s-3.272 1.444-3.488 1.444-1.073.386-1.905.858-2.322 1.164-3.312 1.538c-1.71.646-5.13 2.16-9.294 4.115l-1.894.889-.006 13.676c-.007 14.855-.059 14.556 2.348 13.301l1.606-.837 2.577 1.23c1.418.677 2.69 1.23 2.828 1.23.227 0 2.447 1.017 9.692 4.439 1.352.639 2.585 1.161 2.742 1.161s1.166.443 2.243.983l1.958.984v-23.784c0-13.08-.135-23.779-.3-23.774s-.84.255-1.5.556m83.58 4.561c-.209.18-1.19.656-2.18 1.057-.99.402-3.103 1.335-4.695 2.074s-3.072 1.343-3.288 1.343-.983.325-1.705.722-2.302 1.14-3.512 1.653c-1.21.512-3.1 1.347-4.2 1.854a96 96 0 0 1-3.5 1.526l-1.5.604v42.221c0 23.221.075 42.22.167 42.22.229 0 3.026-1.227 6.735-2.955 1.706-.795 3.178-1.445 3.272-1.445s1.308-.518 2.698-1.151a724 724 0 0 1 10.828-4.784l1.9-.82v-42.223c0-23.222-.144-42.222-.32-42.222s-.491.147-.7.326m-152.691 14.719c-.256.256-5.168 2.467-8.339 3.753-1.984.805-3.998 1.68-8.75 3.802-1.65.737-3.879 1.725-4.953 2.197-2.315 1.016-2.31 1.022 2.553 3.184a341 341 0 0 1 6.249 2.854c1.347.641 2.551 1.165 2.676 1.165s1.779.72 3.675 1.6 3.521 1.6 3.612 1.6c.09 0 1.164.457 2.385 1.016l2.222 1.016 2.548-1.216c1.401-.669 2.641-1.216 2.755-1.216s1.552-.63 3.196-1.4 3.084-1.4 3.2-1.4 1.532-.609 3.146-1.353a480 480 0 0 1 6.336-2.85c4.299-1.892 4.365-1.963 2.526-2.707-1.519-.615-6.55-2.913-11.126-5.082-1.32-.625-4.11-1.877-6.2-2.781s-4.113-1.82-4.495-2.035c-.77-.435-2.835-.529-3.216-.147m24.485 12.896a97 97 0 0 1-3.974 1.817c-.99.416-3.103 1.36-4.695 2.099s-3.033 1.343-3.202 1.343c-.168 0-1.604.63-3.192 1.4-1.587.77-3.116 1.414-3.398 1.431s-1.323.525-2.313 1.127l-1.8 1.095v39.173c0 25.902.136 39.147.4 39.095.22-.043 2.47-1.005 5-2.137s5.41-2.376 6.4-2.764 3.104-1.305 4.698-2.038l2.897-1.334.103-31.624L180.2 221l2-.906c1.1-.499 2.45-1.135 3-1.415l1-.509.109-7.439c.124-8.545.187-8.409-3.135-6.79m23.006 6.394c-.209.184-1.3.718-2.425 1.187s-3.195 1.38-4.6 2.023a577 577 0 0 1-7.755 3.43c-2.86 1.243-5.56 2.428-6 2.634s-1.31.559-1.933.785c-1.466.532-1.209 1.207.715 1.873.845.293 2.455.965 3.577 1.493 4.166 1.963 8.117 3.734 10.747 4.819 1.488.614 2.803 1.275 2.923 1.468s.489.353.819.353c.331 0 1.588.467 2.795 1.037l2.193 1.038 2.682-1.102a163 163 0 0 0 5.082-2.206c1.32-.607 3.93-1.771 5.8-2.587a636 636 0 0 0 5.2-2.294c.99-.445 2.784-1.213 3.986-1.706s2.238-1.051 2.301-1.242c.098-.293-7.378-4.138-8.045-4.138-.125 0-1.715-.699-3.534-1.553l-6.35-2.978c-1.673-.783-3.519-1.544-4.104-1.691-.584-.147-1.16-.427-1.281-.622-.279-.451-2.288-.466-2.793-.021m-116.375 9.018c-2.267 1.273-2.478 1.531-1.005 1.231.77-.156 1.49-.415 1.6-.574.11-.16.461-.374.78-.477.506-.163.506-.214 0-.406-.319-.121-.938-.019-1.375.226M82.6 222.8c-.136.22-.586.4-1 .4s-.845.149-.958.332c-.113.182.102.304.477.27 1.188-.106 2.481-.642 2.481-1.029 0-.496-.688-.477-1 .027m149.4-.118c-.33.12-1.849.826-3.376 1.569-1.527.742-2.93 1.349-3.119 1.349s-1.1.378-2.024.839c-1.964.981-8.428 3.866-12.581 5.614l-2.9 1.222v39.362c0 21.65.092 39.363.204 39.363.113 0 .968-.343 1.9-.762 6.045-2.717 10.081-4.506 12.696-5.625 1.65-.707 3.72-1.617 4.6-2.023s2.635-1.19 3.9-1.742l2.3-1.004v-39.222c0-31.128-.103-39.215-.5-39.19a4.8 4.8 0 0 0-1.1.25m-153.3 1.594c-.385.1-.7.349-.7.553 0 .524.474.441 1.376-.242.778-.588.634-.654-.676-.311m-2.8 1.471c-1.125.417-1.498 1.063-.6 1.04.57-.014 2.13-1.109 1.871-1.313-.094-.074-.666.049-1.271.273M63.2 231.4c-.27.325-.638.5-.818.389s-.44-.019-.578.204c-.352.57.313.506 1.58-.151.592-.307.903-.665.691-.796-.211-.13-.605.029-.875.354m-6.8 2.902c-1.152.525-1.261.669-.615.813.431.097.851-.024.933-.269s.404-.446.715-.446c.312 0 .567-.18.567-.4s-.045-.385-.1-.367-.73.319-1.5.669m-12.8 5.784c-.879.383-.909.457-.248.614.414.098.864.008 1-.201.136-.208.518-.482.848-.607.533-.203.533-.23 0-.235-.33-.003-1.05.19-1.6.429m-4 1.79c-1.51.853-1.607.972-.6.741.66-.152 1.26-.443 1.333-.647.074-.203.389-.37.7-.37.312 0 .567-.18.567-.4 0-.49.161-.544-2 .676m-8.204 3.731c-.138.223-.382.325-.543.226-.16-.099-.553-.015-.872.187-.463.293-.414.369.243.374.859.006 2.733-1.159 1.9-1.181a.92.92 0 0 0-.728.394m-3.047 2.176c-.261.263-.036 8.566.273 10.086.187.915 4.424 3.331 5.842 3.331.405 0 .736.18.736.4s.45.4 1 .4 1 .138 1 .306c0 .331 2.929 1.694 3.641 1.694.24 0 .913.328 1.497.729 1.297.89 3.821 2.071 4.428 2.071.456 0 .612.069 3.543 1.58.939.485 1.929.789 2.2.677.289-.12.122-.315-.409-.477-.495-.15-.9-.432-.9-.627 0-.194-.27-.353-.6-.353s-.6-.157-.6-.35-.584-.467-1.297-.609c-1.646-.33-3.503-1.145-3.503-1.539 0-.166-.36-.302-.8-.302s-.8-.146-.8-.324-1.08-.648-2.4-1.044c-1.32-.395-2.4-.879-2.4-1.075S38.44 262 38 262s-.8-.144-.8-.32c0-.175-.675-.56-1.5-.853-2.697-.96-4.5-1.81-4.5-2.121 0-.168-.33-.306-.732-.306-1.219 0-1.66-1.579-1.766-6.335-.056-2.494-.215-4.421-.353-4.282m25.019 21.765c.158.256.455.361.66.235.204-.127.372-.061.372.147 0 .207.315.477.7.599s1.15.489 1.7.817c1.016.604 2.194 1.09 3.101 1.279.276.058 1.436.57 2.579 1.14 2.274 1.133 2.72 1.237 2.72.635 0-.22-.36-.4-.8-.4s-.8-.166-.8-.368c0-.203-.538-.487-1.195-.631-.658-.144-1.299-.429-1.424-.632-.126-.203-.578-.369-1.005-.369s-.776-.18-.776-.4-.36-.4-.8-.4-.8-.136-.8-.302c0-.355-1.707-1.134-3.36-1.534-.833-.202-1.079-.15-.872.184m12.552 5.732c.373.373.587.373.96 0s.267-.48-.48-.48-.853.107-.48.48m1.28.473c0 .214 4.483 2.399 5.131 2.502.292.046.832.217 1.2.38l.869.384c.11.049.605.22 1.1.381.495.162.9.422.9.58s.27.287.6.287c1.054 0 .643-.594-.6-.867-.66-.145-1.2-.429-1.2-.632 0-.202-.36-.368-.8-.368s-.8-.18-.8-.4-.45-.4-1-.4-1-.138-1-.306c0-.371-2.969-1.694-3.803-1.694-.328 0-.597.069-.597.153m12.8 5.914c0 .256.118.348.263.203s.46-.104.7.091c.926.75 3.489 2.039 4.055 2.039.326 0 .905.169 1.287.374 2.63 1.418 5.327 2.453 5.736 2.201.301-.186.379-.13.207.148-.292.472 2.441 2.077 3.536 2.077.339 0 .616.18.616.4s.354.4.786.4 1.579.443 2.549.984c1.643.918 2.265.959 2.265.149 0-.183-.36-.333-.8-.333s-.801-.135-.803-.3c-.004-.351-1.934-1.3-2.644-1.3-.607 0-3.105-1.293-3.286-1.7-.074-.165-.468-.3-.877-.3-.408 0-.854-.18-.99-.4s-.614-.4-1.062-.4c-.843 0-3.237-1.172-3.471-1.7-.074-.165-.569-.3-1.1-.3s-.967-.18-.967-.4-.26-.4-.579-.4-1.425-.45-2.459-1c-2.054-1.092-2.962-1.255-2.962-.533m96.16 5.251c-1.991.914-2.709 1.426-2.4 1.712.398.369 5.574 2.57 6.044 2.57.108 0 .196-1.26.196-2.8 0-3.291.055-3.27-3.84-1.482m-74.16 4.65c0 .203.585.495 1.3.65s1.39.409 1.5.564c.445.626 4.798 2.476 5.474 2.326.511-.113.135-.442-1.274-1.112-1.1-.523-2.09-1.053-2.2-1.177-.644-.726-4.8-1.809-4.8-1.251m9.4 4.032c.136.22.597.4 1.024.4s.776.158.776.351c0 .194.585.581 1.3.86 2.492.975 4.107 1.736 5.1 2.402.812.544 2.295 1.105 3.6 1.361.11.022 2.09.957 4.4 2.079 7.278 3.535 8.8 4.11 8.8 3.324 0-.207-.287-.377-.638-.377s-1.127-.348-1.725-.773c-.597-.426-1.572-.896-2.165-1.045-.594-.149-1.178-.431-1.299-.626-.121-.196-.66-.356-1.197-.356s-.976-.18-.976-.4-.36-.4-.8-.4-.8-.16-.8-.357c0-.348-1.903-1.039-2.5-.909-.165.036-.3-.114-.3-.334s-.272-.4-.605-.4c-.556 0-2.119-.723-2.595-1.201-.344-.345-2.156-1.138-3.2-1.4-1.478-.371-4.4-1.873-4.4-2.262 0-.185-.461-.337-1.024-.337-.58 0-.916.173-.776.4m26.6 11.926c.77.371 1.46.809 1.533.974.191.43 1.267.372 1.267-.068 0-.203-.538-.487-1.195-.631-.658-.144-1.299-.429-1.424-.632-.126-.203-.533-.357-.905-.343-.38.014-.062.321.724.7" fill="#d2d2d2"/>
    <path d="M180.656 94.278c-.154.153-.263 7.075-.242 15.382l.039 15.103.873.269c.481.148 2.523 1.056 4.539 2.018 2.015.963 3.82 1.75 4.011 1.75 1.634 0 1.724.935 1.724 18.005 0 9.017.083 16.395.185 16.395.32 0 3.908-1.464 6.615-2.7 4.737-2.163 5.219-2.27 6.953-1.546.849.355 1.703.646 1.896.646.198 0 .351-11.609.351-26.621v-26.621l-2.7-1.23c-1.485-.677-3.825-1.748-5.201-2.379-1.376-.632-2.599-1.149-2.719-1.149s-1.563-.63-3.207-1.4c-1.645-.77-3.073-1.4-3.173-1.4-.154 0-2.686-1.131-7.4-3.304-.55-.254-1.285-.695-1.632-.98-.348-.285-.759-.392-.912-.238M137.523 140.9c-.158 14.544-.445 13.146 3.016 14.712 7.947 3.596 7.032.728 7.048 22.081l.013 17.893 1.3-.716c.715-.393 1.93-.957 2.7-1.253s2.75-1.169 4.4-1.942c3.382-1.583 4.738-1.73 6.9-.746l1.5.682v-25.206c0-18.008-.125-25.205-.438-25.205-.242 0-1.766-.63-3.389-1.4s-3.032-1.4-3.132-1.4-1.501-.596-3.112-1.323a275 275 0 0 0-4.729-2.086c-.99-.419-2.39-1.083-3.112-1.476s-1.489-.715-1.704-.715c-.216 0-1.85-.72-3.632-1.6s-3.3-1.6-3.373-1.6-.188 5.085-.256 11.3M220 151.737v13.737l1.7.843c.935.464 2.94 1.393 4.456 2.064 4.174 1.847 3.817-.641 3.831 26.7l.013 24.081 1.5.684c2.998 1.367 2.881.703 2.891 16.454.006 9.373.147 14.1.42 14.1.226 0 2.943 1.149 6.037 2.553 3.762 1.706 5.913 2.474 6.49 2.316.719-.198.746-.261.162-.382-.662-.138-.7-2.963-.7-52.542v-52.396l-3.7-1.72a438 438 0 0 0-8.1-3.634c-2.42-1.052-4.58-2.039-4.8-2.192-.22-.152-1.571-.737-3.002-1.299s-3.482-1.49-4.559-2.063S220.528 138 220.34 138s-.34 6.182-.34 13.737M93.551 189.1c-.028 16.665-.009 32.595.041 35.4.078 4.449.008 5.1-.551 5.1-.809 0-.837.639-.042.944.522.2.586 2.454.5 17.377l-.099 17.146 1 .001c.55.001 3.97 1.364 7.6 3.028 6.564 3.009 8.079 3.693 12.529 5.658 1.281.565 2.243 1.167 2.138 1.337s.287.315.871.323c.584.007 1.466.154 1.959.326l.897.312.103-52.826c.083-42.351.003-52.826-.402-52.826-.278 0-.818-.165-1.2-.366-.382-.202-1.325-.634-2.095-.961-.77-.328-2.3-.994-3.4-1.481s-2.54-1.119-3.2-1.404-2.19-.962-3.4-1.503a1375 1375 0 0 0-10.7-4.721c-.715-.308-1.3-.695-1.3-.862 0-.166-.27-.302-.6-.302-.528 0-.606 3.655-.649 30.3m83.16-5.446-.111 13.235 1 .678c.55.374 2.26 1.192 3.8 1.819 1.54.626 3.381 1.567 4.092 2.09l1.292.952.108 7.951.108 7.95 1.4-.681c.77-.375 2.12-.97 3-1.323s2.59-1.088 3.8-1.635 3.1-1.382 4.2-1.858c1.1-.475 2.45-1.061 3-1.301l1-.437-.2-14.646-.2-14.645-2.2-.802c-1.21-.44-3.01-1.195-4-1.678-2.424-1.18-9.147-4.123-9.419-4.123-.12 0-1.515-.606-3.1-1.346a809 809 0 0 0-5.17-2.391l-2.29-1.044zm82.464 29.046c-.03 44.792-.027 44.584-.667 44.798-.727.242.787 3.015 1.956 3.583 2.744 1.334 7.101 3.319 7.284 3.319.115 0 1.524.615 3.131 1.367 1.606.751 4.676 2.18 6.821 3.174 2.145.995 3.9 2 3.9 2.234s.328.425.729.425 1.434.343 2.297.763c1.64.798 2.513.728 1.79-.144-.293-.353-.391-13.562-.32-42.964.081-32.842-.005-42.455-.377-42.455-.586 0-3.972-1.453-16.319-7.005-1.32-.593-3.12-1.365-4-1.716-.88-.35-2.563-1.141-3.741-1.758s-2.212-1.121-2.3-1.121-.17 16.875-.184 37.5m-125.909-10.606c-.348.348-.466 10.392-.466 39.797v39.331l4.606 2.189c2.533 1.204 4.774 2.189 4.98 2.189s.518.226.694.502 1.04.753 1.92 1.06c1.579.549 2.565.988 10.354 4.603 2.174 1.009 4.109 1.835 4.3 1.835.192 0 .346-17.68.346-39.902v-39.903l-1.1-.481c-.605-.265-1.784-.765-2.619-1.111a161 161 0 0 1-4.11-1.816c-1.425-.653-2.663-1.187-2.752-1.187s-1.479-.601-3.09-1.336a150 150 0 0 0-4.828-2.1c-1.044-.42-1.899-.899-1.9-1.064s-.256-.3-.568-.3c-.901 0-4.39-1.58-4.867-2.204-.33-.433-.545-.457-.9-.102M180.76 252.9c-.022 17.435-.007 33.193.035 35.017.041 1.825-.104 3.535-.321 3.8-.236.29-.309 2.257-.181 4.915l.214 4.432 3.846 1.743c2.116.958 5.507 2.519 7.537 3.468 2.029.949 3.874 1.725 4.1 1.725s.41.243.41.539c0 .313.461.554 1.1.574 1.206.038 4.031 1.188 9.8 3.989.165.08.3-17.955.3-40.078 0-35.648-.069-40.224-.605-40.224-.333 0-.918-.166-1.3-.368-1.405-.745-6.013-2.812-8.122-3.643-1.194-.47-2.351-.992-2.572-1.159s-1.661-.799-3.201-1.404-2.98-1.233-3.2-1.397-1.48-.718-2.8-1.232c-1.32-.513-2.878-1.263-3.462-1.665s-1.169-.732-1.3-.732-.256 14.265-.278 31.7m-101.384-5.53c.428.347 1.148.615 1.6.596.661-.028.613-.099-.245-.357-.587-.178-1.307-.446-1.6-.596-.292-.15-.182.011.245.357m-49.603.755c-.111.29-.15 2.495-.087 4.901l.114 4.374 2.2 1.07c1.21.589 3.37 1.609 4.8 2.267s4.193 1.932 6.139 2.83 3.617 1.633 3.712 1.633c.094 0 1.472.608 3.06 1.351 1.589.744 4.419 2.027 6.289 2.852s5.043 2.287 7.052 3.249c2.009.961 3.837 1.748 4.062 1.748s1.102.344 1.948.764c1.729.859 9.108 4.319 10.338 4.848.44.19 1.7.727 2.8 1.196 2.197.935 7.575 3.351 12.121 5.446 1.607.74 3.044 1.346 3.194 1.346s1.355.526 2.678 1.169c2.407 1.169 5.268 2.48 9.407 4.31 1.21.535 3.46 1.582 5 2.327 3.04 1.47 5.681 2.638 8.317 3.678a36 36 0 0 1 3.283 1.539c.88.481 2.05 1.007 2.6 1.169 1.047.31 4.011 1.65 9.414 4.257 1.768.853 3.36 1.551 3.538 1.551.179 0 1.652.63 3.275 1.4s3.046 1.4 3.164 1.4c.117 0 1.157.465 2.311 1.034 1.154.568 2.728 1.267 3.498 1.553 1.309.487 2.449 1.001 9.895 4.466 1.592.741 3.018 1.347 3.169 1.347.15 0 1.367.519 2.704 1.154a399 399 0 0 0 6.232 2.858c2.09.936 4.88 2.193 6.2 2.792s3.93 1.759 5.8 2.578a892 892 0 0 1 13.4 6.023c5.847 2.69 4.831 2.739 11.891-.569 1.921-.9 3.573-1.636 3.672-1.636s1.319-.518 2.709-1.151c2.407-1.096 5.013-2.248 12.428-5.493a384 384 0 0 0 6.639-3c1.837-.856 3.496-1.556 3.688-1.556s.939-.322 1.661-.715 2.122-1.057 3.112-1.476 3.118-1.358 4.729-2.086 3.006-1.323 3.099-1.323 1.533-.63 3.2-1.4 3.112-1.4 3.213-1.4 1.482-.608 3.07-1.351a331 331 0 0 1 6.089-2.756c1.76-.772 4.865-2.144 6.901-3.048 2.035-.905 3.78-1.645 3.878-1.645s1.583-.65 3.3-1.444c4.461-2.065 7.399-3.393 8.321-3.762.44-.176 2.172-.966 3.849-1.757s3.332-1.437 3.677-1.437.728-.163.851-.363 1.619-.94 3.324-1.646a240 240 0 0 0 5.699-2.458c1.43-.647 2.96-1.33 3.4-1.518 2.087-.894 4.701-2.076 7.908-3.575 1.929-.902 3.593-1.64 3.698-1.64s1.555-.63 3.222-1.4 3.111-1.4 3.209-1.4c.099 0 1.702-.72 3.563-1.6s3.495-1.6 3.63-1.6c.136 0 1.574-.63 3.197-1.4s3.032-1.4 3.132-1.4 1.546-.63 3.213-1.4 3.108-1.4 3.202-1.4 1.308-.518 2.698-1.151 3.662-1.652 5.048-2.264c3.099-1.368 3.28-1.695 3.28-5.926 0-5.266.276-5.194-7-1.827-4.013 1.857-7.802 3.548-9.955 4.444a147 147 0 0 0-4.887 2.187c-1.563.735-3.123 1.337-3.468 1.337s-1.135.27-1.758.6c-1.233.654-7.309 3.4-7.521 3.4-.073 0-1.676.72-3.563 1.6s-3.512 1.6-3.611 1.6-1.319.522-2.709 1.161c-5.749 2.64-7.3 3.175-8.045 2.776-.399-.213-1.03-.307-1.404-.209-.621.164-.619.183.021.226.99.065.869.8-.2 1.215-.495.192-2.07.886-3.5 1.541-1.43.656-4.04 1.826-5.8 2.602l-8.696 3.83c-5.395 2.376-5.521 2.41-6.9 1.834-.829-.346-1.404-.421-1.404-.181 0 .223.251.405.557.405s.667.285.8.633c.329.856.31.967-.168.967-.226 0-2.431.919-4.9 2.042-8.092 3.682-8.711 3.958-8.877 3.958-.091 0-1.716.72-3.612 1.6s-3.529 1.6-3.628 1.6-1 .385-2.001.856c-1.361.639-1.935.74-2.275.4-.676-.676-1.719-.607-1.152.076.458.552.427.57-5.544 3.203-1.21.534-3.608 1.622-5.329 2.418s-3.201 1.447-3.288 1.447c-.156 0-2.045.832-7.475 3.292l-2.693 1.219-2.462-1.068c-1.354-.587-2.526-1.003-2.604-.925s.757.549 1.857 1.046c2.97 1.342 3.889.768-13.504 8.432-9.248 4.076-9.304 4.094-10.6 3.479-.717-.34-2.113-.969-3.103-1.398a335 335 0 0 1-3.999-1.777c-2.133-.968-5.577-2.49-12.2-5.393-3.143-1.377-4.894-2.507-3.886-2.507.267 0 .486-.186.486-.414 0-.284-.241-.285-.764-.006-.579.311-1.277.18-2.9-.543-1.175-.524-3.666-1.628-5.536-2.452a600 600 0 0 1-6.329-2.842c-1.611-.739-3.01-1.343-3.109-1.343s-1.723-.72-3.61-1.6-3.616-1.6-3.841-1.6-.165-.293.132-.652c.486-.585.417-.625-.67-.386-1.205.265-1.887.029-8.085-2.799-1.161-.529-2.189-.963-2.285-.963-.095 0-1.906-.81-4.025-1.8-2.118-.99-3.912-1.8-3.986-1.8-.073 0-1.497-.63-3.164-1.4s-3.211-1.4-3.43-1.4-.398-.27-.398-.6c0-.348-.363-.6-.863-.6-.475 0-2.41-.703-4.3-1.563-4.68-2.128-8.89-4.01-14.837-6.634-5.902-2.603-6.053-2.688-5.834-3.259.146-.381-.136-.544-.943-.544-1.085 0-2.719-.675-10.746-4.441-1.828-.857-3.411-1.559-3.519-1.559-.107 0-1.541-.63-3.185-1.4s-3.145-1.4-3.333-1.4c-.727 0-1.238-1.042-.75-1.53.266-.266.297-.47.07-.47-.22 0-.571.169-.78.375-.378.372-3.866-.594-6.38-1.768-.66-.308-3.122-1.471-5.472-2.584-2.349-1.113-4.396-2.023-4.548-2.023s-1.952-.81-4.001-1.8-3.898-1.8-4.109-1.8c-.212 0-.488-.27-.615-.6-.126-.33-.551-.604-.942-.609-.392-.005-1.523-.394-2.513-.866-.99-.471-1.895-.872-2.012-.891s-1.466-.602-3-1.296c-1.533-.693-5.308-2.384-8.388-3.756-3.08-1.373-6.551-2.92-7.712-3.439-1.635-.73-2.158-.825-2.315-.418M289.2 271.771c0 .16 2.362 1.429 2.661 1.429.535 0-.056-.688-.944-1.1-1.105-.513-1.717-.631-1.717-.329m7.76 3.601c.637.353 1.252.549 1.366.435.316-.316-.013-.516-1.327-.809l-1.199-.267zM251.4 278.4c.88.425 1.78.772 2 .77.22-.001-.307-.355-1.171-.786s-1.765-.778-2-.77c-.236.007.291.361 1.171.786m51.5-.524c.385.1.7.349.7.553s.27.371.6.371c.924 0 .71-.677-.3-.948-.495-.133-1.08-.223-1.3-.2s-.085.123.3.224m-46 2.8c.385.1.7.399.7.664q.001.48 1.6.329c.88-.084 1.6-.314 1.6-.511s.3-.358.667-.358c.366 0 .56-.107.43-.237s-.88-.004-1.667.281c-1.112.402-1.536.41-1.91.036-.264-.264-.849-.459-1.3-.434-.675.039-.696.079-.12.23m11.9 4.816c.33.125.69.336.8.468.253.303 2.8 1.225 2.8 1.013 0-.282-3.155-1.774-3.684-1.741q-.513.032.084.26m6.5 2.784c.385.1.7.349.7.553s.345.371.767.371c.421 0 .835.207.92.46.084.253.414.371.733.262.601-.204-2.584-1.964-3.395-1.876-.234.026-.11.129.275.23M218 309.569c.77.439 1.575.805 1.789.814.649.028-1.119-1.056-2.189-1.343-.746-.2-.645-.065.4.529m4.8 2.135c2.689 1.346 4 1.901 4 1.693 0-.286-4.71-2.597-5.289-2.595-.281.001.299.407 1.289.902" fill="#060606"/>
    <path d="M335.6 248.11c-5.078 2.314-6.828 3.09-6.972 3.09-.093 0-1.533.63-3.2 1.4s-3.116 1.4-3.219 1.4-1.456.617-3.006 1.371c-1.55.755-3.444 1.579-4.21 1.831-1.527.504-1.94 1.846-.693 2.25.385.124 2.015.839 3.621 1.587 1.607.749 3.062 1.361 3.234 1.361s1.607.63 3.189 1.4 2.958 1.4 3.058 1.4 1.489.605 3.089 1.345c6.078 2.81 6.41 2.88 8.803 1.868 2.76-1.167 7.806-3.398 11.306-5a394 394 0 0 1 6.878-3.033c4.328-1.86 4.54-2.197 2.009-3.208-.708-.282-2.727-1.178-4.487-1.99s-4.1-1.881-5.2-2.377-4.125-1.869-6.722-3.053c-4.872-2.22-5.774-2.419-7.478-1.642" fill="#1a8898"/>
    <path d="M89.8 244.378c-1.32.632-3.548 1.65-4.95 2.263l-2.551 1.114 1.951.904c4.878 2.262 8.279 3.741 8.6 3.741.192 0 .35-2.07.35-4.6 0-5.252.137-5.114-3.4-3.422M256 260.321a80 80 0 0 1-3.2 1.459c-.99.423-3.303 1.455-5.14 2.294s-3.431 1.526-3.543 1.526c-.111 0-1.308.522-2.66 1.159a154 154 0 0 1-4.578 2.059c-2.5 1.059-2.544.999 2.321 3.164 2.09.93 4.933 2.215 6.318 2.854s2.589 1.164 2.676 1.164 1.71.72 3.606 1.6 3.529 1.6 3.628 1.6.989.38 1.976.844l1.796.844 1.796-.844c.987-.464 1.874-.844 1.97-.844.097 0 1.539-.63 3.206-1.4s3.108-1.4 3.202-1.4 1.308-.519 2.698-1.153c1.39-.635 3.428-1.542 4.528-2.017s2.495-1.079 3.1-1.344c1.651-.723 1.41-.997-2.4-2.728a391 391 0 0 1-5.1-2.357c-.88-.422-3.465-1.593-5.745-2.603-6.827-3.024-7.655-3.461-7.655-4.042 0-.742-1.089-.677-2.8.165m-125.4 12.001c-.66.396-1.83.962-2.6 1.259s-2.733 1.158-4.363 1.915c-2.477 1.149-3.12 1.303-3.919.939-1.153-.525-3.186-.572-3.491-.079-.121.195-.652.464-1.181.597-.53.133-2.376.882-4.104 1.666s-3.682 1.666-4.342 1.96l-1.2.536 3.491 1.643c1.921.903 3.572 1.642 3.671 1.642s1.543.63 3.21 1.4 3.117 1.4 3.222 1.4 1.706.72 3.558 1.6 3.478 1.6 3.612 1.6c.135 0 1.054.38 2.043.845l1.799.846 2.208-1.046c1.214-.575 2.289-1.045 2.388-1.045s1.489-.608 3.089-1.351 3.314-1.475 3.809-1.627c.881-.27 1.267-1.022.524-1.022-.344 0-7.422-3.169-8.824-3.951-.474-.264-.623-1.396-.712-5.392-.062-2.781-.242-5.056-.4-5.056-.158.001-.828.326-1.488.721m125.8 10.806c-.77.383-2.39 1.115-3.6 1.628s-3.46 1.524-5 2.247c-1.54.724-3.25 1.446-3.8 1.605s-1.199.448-1.442.642c-.244.194-2.095 1.044-4.115 1.89-4.711 1.973-6.003 1.026 12.357 9.057 1.87.818 4.367 1.918 5.548 2.445s2.375.958 2.652.958 1.47-.431 2.652-.958c1.181-.527 3.678-1.629 5.548-2.449s4.538-2.009 5.928-2.642 2.604-1.151 2.698-1.151c.362 0 6.394-2.885 6.885-3.293.583-.483.834-.343-5.911-3.315-2.31-1.019-5.28-2.36-6.6-2.981-9.795-4.607-11.192-4.98-13.8-3.683" fill="#eebe2d"/>
    <path d="M180.176 105.4c0 6.16.056 8.624.123 5.476a308 308 0 0 0 0-11.2c-.068-3.012-.123-.436-.123 5.724m-.083 16.2c0 .77.082 1.085.183.7s.1-1.015 0-1.4c-.101-.385-.183-.07-.183.7m9.907 7.606c.493.324.505.456.063.74-.394.255-.262.399.5.545.57.109 1.037.135 1.037.058 0-.36-1.424-1.748-1.789-1.743-.226.003-.141.183.189.4m-52.619.501c-.107.278-.146 5.183-.087 10.9l.107 10.393.2-10.9c.109-5.995.148-10.9.086-10.9-.061 0-.2.228-.306.507m27.111 36.793c-.051 14.025.043 25.5.208 25.5.272 0 .268-18.717-.009-42-.059-4.95-.148 2.475-.199 16.5m12.09 4.003c-.107.277-.143 6.262-.082 13.3l.112 12.797.094-13.124c.062-8.623.231-13.038.494-12.876.22.136.4.057.4-.176 0-.593-.784-.531-1.018.079m-55.997.397c-.105.275-.144 23.99-.088 52.7l.103 52.2.2-52.7c.11-28.985.149-52.7.087-52.7-.061 0-.198.225-.302.5m82.607 25.467c.19 14.446.307 13.243.506-5.201.066-6.09-.04-9.433-.298-9.433-.263 0-.334 5.016-.208 14.634m82.906 33.053c-.07 30.135.028 42.546.337 42.855.806.806-.228.857-1.809.088-1.994-.97-2.649-.958-4.403.077-.783.461-1.426.686-1.429.5s-.138-.153-.3.075-1.419.855-2.794 1.393-2.5 1.136-2.5 1.328-.27.246-.6.119c-.33-.126-.6-.056-.6.158a.39.39 0 0 1-.389.387c-.213 0-1.428.484-2.7 1.076-1.271.593-2.491 1.101-2.711 1.131-.744.1-5.198 2.35-5.484 2.77-.298.439 1.125 1.204 1.984 1.068.275-.044.5.102.5.325s.268.302.597.176c.34-.131.702.046.842.41.134.352.406.54.603.418s.358-.054.358.15c0 .205.855.6 1.9.878s3.009 1.111 4.365 1.852c1.356.74 2.73 1.346 3.054 1.346.888 0 2.709 1.038 2.387 1.361-.155.154.01.169.366.033.356-.137.773-.045.926.203.343.554 2.218 1.361 2.902 1.25.275-.045.5.136.5.402s.113.371.251.234c.138-.138.86.003 1.604.314 1.313.549 1.52.492 6.849-1.855l8.696-3.83c1.76-.776 4.37-1.946 5.8-2.602s3.005-1.349 3.5-1.541c1.015-.394 1.214-1.169.3-1.169-.33 0-.6-.18-.6-.4s-.405-.414-.9-.432c-.495-.017-.662-.126-.371-.243s1.335.096 2.32.473c1.741.664 1.849.659 3.871-.2 1.754-.744 12.559-5.525 18.08-7.998.88-.395 2.32-1.033 3.2-1.419 1.141-.5 1.399-.75.9-.871-.385-.093-.7-.335-.7-.539s-.272-.371-.605-.371-.918-.159-1.3-.354c-2.709-1.379-6.75-3.249-7.02-3.248-.178.001-1.618-.606-3.2-1.35-7.038-3.308-8.506-3.957-8.975-3.969-.322-.008-.5-.637-.5-1.769 0-1.202.142-1.669.451-1.478.42.259 2.696-.688 9.792-4.075 1.563-.746 3.03-1.357 3.259-1.357s1.38-.502 2.557-1.116 3.041-1.452 4.141-1.861c3.4-1.266 3.734-1.652 1.93-2.237-1.396-.453-6.512-2.706-8.246-3.631-.394-.21-.87-.287-1.058-.171s-.445-.058-.572-.386c-.126-.329-.505-.598-.841-.598-.337 0-.613-.157-.613-.35s-.527-.455-1.171-.584c-1.16-.232-4.845-1.814-5.229-2.246-.242-.271-2.847-1.198-3.983-1.417-.808-.155-.817-.026-.817 11.849 0 11.781-.291 14.364-1.488 13.208-.19-.184-4.558 1.552-5.252 2.088-.298.229-.748.452-1 .494-.253.043-1.72.666-3.26 1.385s-2.89 1.338-3 1.375c-.471.158-1.947.796-4 1.728-1.21.55-2.29 1.02-2.4 1.046s-1.257.536-2.548 1.135-2.596 1.089-2.899 1.089c-.462 0-.566-6.762-.653-42.5l-.104-42.5zM93.293 214c0 .77.082 1.085.183.7s.1-1.015 0-1.4c-.101-.385-.183-.07-.183.7m-2.693 6.206c-1.54.754-3.094 1.377-3.454 1.383-1.056.018-2.884 1.093-2.274 1.337.29.116.121.225-.377.242-.498.018-1.218.205-1.6.417-1.308.725-5.318 2.415-5.73 2.415-.227 0-.32.15-.206.333.213.345.116.369-2.059.506-.715.046-1.3.235-1.3.422 0 .186-.262.339-.582.339s-1.027.445-1.57.989c-.663.663-1.054.827-1.187.5-.153-.378-.205-.375-.229.011-.018.275-.302.5-.632.5s-.6.157-.6.35-.495.45-1.1.573-2.18.724-3.5 1.337-2.639 1.064-2.932 1.002c-.293-.061-.973.177-1.511.53-.539.353-1.182.516-1.43.363-.275-.17-.339-.099-.165.183.157.254.084.462-.162.462s-.319.208-.162.462.123.365-.076.247-.764-.063-1.255.123c-1.071.404-.835 1.41.423 1.809.471.15 2.165.877 3.765 1.616 1.6.738 2.984 1.343 3.077 1.343s1.533.63 3.2 1.4 3.111 1.4 3.209 1.4 1.581.645 3.298 1.434c8.988 4.131 6.165 4.3 17.621-1.057l2.5-1.17-.006-5.303c-.006-5.379-.122-6.001-1.194-6.417-.449-.174-.365-.304.334-.516.926-.28.932-.324.805-5.626-.071-2.94-.131-5.337-.134-5.327s-1.265.634-2.805 1.388m142.747 1.072c.551.924.658 3.066.753 15l.111 13.922.085-14c.084-13.694.068-14.022-.752-15l-.839-1zM180.59 253c.001 17.38.05 24.432.11 15.67s.06-22.981 0-31.6-.11-1.45-.11 15.93M82.6 224.8c-.136.22-.517.4-.847.4s-.489-.18-.353-.4.517-.4.847-.4.489.18.353.4M47 239.2c-.136.22.023.4.353.4s.711-.18.847-.4-.023-.4-.353-.4-.711.18-.847.4m-3.4 1.781c-.55.308-1.341.667-1.757.799-.417.131-.656.34-.533.464.261.26 2.997-.97 3.32-1.493.287-.463.157-.435-1.03.23m-6.4 2.574c-.835.149-1.212.371-.934.55.455.293 2.534-.277 2.534-.695 0-.116-.045-.186-.1-.157s-.73.165-1.5.302m306.063 5.991c1.152.925 1.537 1.051 1.537.501 0-.195-.315-.465-.7-.601s-.97-.361-1.3-.501c-.33-.139-.122.131.463.601M234.4 259.6c0 6.058.141 9.2.413 9.2.629 0 3.187-1.126 3.187-1.403 0-.134-.186-.129-.413.011s-.947.409-1.6.596l-1.187.34v-17.598l.9.253c.705.198.77.162.3-.167-1.541-1.078-1.6-.754-1.6 8.768m4.4-7.352c0 .285 5.251 2.634 5.448 2.437.089-.089-1.1-.719-2.643-1.4-1.543-.682-2.805-1.148-2.805-1.037m12.4 1.795c0 .243-.27.339-.6.212-.33-.126-.6-.081-.6.102 0 .308 6.021 3.243 6.653 3.243.156 0 .644.315 1.083.7.762.667.787.667.544 0-.14-.385-.081-.7.133-.7.936 0 .268-.724-.88-.953-1.805-.361-5.566-2.27-5.305-2.692.12-.195-.061-.355-.404-.355s-.624.199-.624.443m103.6.704c0 .153.54.481 1.2.731.66.249 1.2.328 1.2.175s-.54-.481-1.2-.731c-.66-.249-1.2-.328-1.2-.175m-109.829.406c.395.64 1.611.725 3.029.213.77-.278 1.13-.506.8-.507s-.96.14-1.4.315-1.215.163-1.723-.027c-.526-.196-.83-.194-.706.006M360.5 257.32c.605.239 1.1.58 1.1.757s.315.322.7.32c.5-.002.358-.229-.5-.797-.66-.437-1.47-.777-1.8-.755s-.105.236.5.475m-106.724 2.91c-.427.346-.537.507-.245.357s1.013-.418 1.6-.596c.858-.258.906-.329.245-.357-.452-.019-1.172.249-1.6.596m-6.4 2.8c-.427.346-.537.507-.245.357s1.013-.418 1.6-.596c.858-.258.906-.329.245-.357-.452-.019-1.172.249-1.6.596m-6.676 2.799c-.605.328-1.1.687-1.1.798s.394-.01.877-.268a13 13 0 0 1 1.9-.78c.8-.243.849-.314.223-.329-.44-.01-1.295.251-1.9.579m50.1 6.167c0 .171.405.448.9.617 2.351.799 2.549.905 1.778.947-1.047.058-4.346-1.527-4.079-1.959.254-.411 1.401-.087 1.401.395M66.206 274.41c.1.162.629.38 1.176.484.547.105.912.058.812-.104s-.629-.38-1.176-.484c-.547-.105-.912-.058-.812.104m231.594.79c.783.44 1.734.821 2.112.846.603.041.607.068.037.22-.725.194-3.949-1.081-3.949-1.56 0-.451.23-.388 1.8.494m6.4 2.829c2.014 1.016 2.175 1.167 1 .941-.77-.149-1.49-.391-1.6-.537s-.83-.57-1.6-.941c-.77-.37-1.13-.674-.8-.674s1.68.545 3 1.211M91 285.6c.136.22.517.4.847.4s.489-.18.353-.4-.517-.4-.847-.4-.489.18-.353.4m89.48 2.671c-.088 3.592-.459 4.05-2.48 3.065-1.932-.941-3.405-1.463-3.9-1.383-.275.045-.5-.19-.5-.523 0-.4-.226-.518-.666-.349-.481.184-.575.109-.34-.271.488-.789-1.436-.234-4.889 1.411-1.592.758-3.072 1.379-3.288 1.379s-1.052.37-1.857.823c-.806.452-1.711.728-2.012.612-.302-.115-.548-.036-.548.178 0 .705-.81.414-7.79-2.797-8.212-3.778-8.418-3.828-10.895-2.639-1.053.506-3.535 1.588-5.515 2.404-6.748 2.783-7.274 2.116 6.4 8.113 1.76.772 4.338 1.922 5.728 2.555s2.6 1.151 2.688 1.151 1.17.462 2.404 1.026l2.245 1.027 3.267-1.395c6.257-2.67 9.699-4.183 14.668-6.448 2.75-1.253 5.315-2.374 5.7-2.491s.7-.402.7-.634.278-.729.618-1.105c.475-.525.586-1.408.48-3.831l-.137-3.149zm-51.28 14.263c0 .103.581.39 1.291.638.71.247 1.115.285.9.084-.456-.427-2.191-.998-2.191-.722m12.4 5.6c0 .103.581.39 1.291.638.71.247 1.115.285.9.084-.456-.427-2.191-.998-2.191-.722m67 4.08c-.66.303-.93.552-.6.554s1.05-.254 1.6-.568c1.265-.723.589-.713-1 .014" fill="#25555a"/>
    <path d="M88.4 267.446c-3.19 1.428-5.96 2.755-6.155 2.95-.28.279 5.19 3.204 5.993 3.204.099 0 1.723.72 3.61 1.6s3.49 1.6 3.563 1.6 1.449.605 3.06 1.345c6.135 2.818 5.175 2.873 13.529-.779 5.373-2.349 5.377-2.355 2.574-3.593-4.297-1.897-5.904-2.62-12.374-5.568-3.52-1.604-6.76-3.015-7.2-3.135-.495-.136-3.012.77-6.6 2.376m145.916 30.43-.116 3.476-7.984 3.542c-9.656 4.283-9.445 4.069-5.448 5.511.787.284 2.692 1.094 4.232 1.799a658 658 0 0 0 5.305 2.396l2.505 1.114 2.895-1.311c1.592-.721 4.033-1.826 5.423-2.457s2.601-1.146 2.69-1.146 1.381-.56 2.872-1.245 3.7-1.683 4.91-2.218c5.303-2.343 5.957-2.683 5.761-3-.187-.303-4.335-2.337-4.765-2.337-.099 0-1.669-.698-3.488-1.552a350 350 0 0 0-6.708-3.04c-1.87-.819-4.081-1.831-4.912-2.248-2.821-1.417-3.041-1.229-3.172 2.716" fill="#e80413"/>
    <path d="M206 82.4c0 .22-.5.4-1.111.4s-1.466.248-1.9.552c-1.503 1.05-3.816 2.248-4.342 2.248-.29 0-1.374.45-2.409 1s-2.421 1-3.083 1c-.7 0-1.099.167-.955.4.141.228-.204.4-.8.4s-.941.172-.8.4c.136.22-.039.4-.389.4s-.739.269-.865.598c-.127.328-.359.518-.517.42-.157-.097-.789.084-1.403.402-.615.319-1.36.58-1.658.58s-1.346.45-2.331 1-2.161 1-2.614 1c-.481 0-.823.261-.823.627 0 .445.232.553.8.373.44-.14.8-.086.8.12 0 .405 4.016 2.197 4.296 1.917.094-.093-.654-.535-1.663-.981s-1.83-.956-1.826-1.134c.007-.321 3.523-2.122 4.143-2.122.18 0 1.654-.63 3.277-1.4s3.09-1.401 3.262-1.401c.171-.001 1.561-.631 3.088-1.4 1.527-.77 2.942-1.399 3.143-1.399s1.507-.545 2.901-1.21c3.849-1.837 5.726-2.42 6.501-2.018 1.57.813 6.941 3.228 7.181 3.228.143 0 1.925.81 3.96 1.8s3.906 1.8 4.157 1.8.934.332 1.518.739 1.602.924 2.262 1.151c3.605 1.238 6.012 2.91 4.189 2.91-.227 0-1.717.619-3.312 1.376s-3.435 1.576-4.089 1.82c-2.312.863-3.388 1.403-3.388 1.702 0 .166-.315.308-.7.315-.385.006-1.6.455-2.7.996s-2.225.985-2.5.987-.5.184-.5.404-.282.4-.626.4-1.997.633-3.672 1.407l-3.046 1.407-2.503-1.207c-1.376-.664-2.621-1.207-2.766-1.207s-1.552-.607-3.125-1.349c-3.509-1.654-4.867-2.106-4.488-1.494.15.244.442.443.649.443s1.951.699 3.876 1.554c1.926.855 4.626 2.05 6.001 2.655l2.5 1.1v26.946c0 14.82-.099 26.945-.22 26.945s-.763-.281-1.427-.624c-.664-.344-1.398-.561-1.63-.484-.233.078.364.477 1.327.887 3.031 1.293 9.653 4.244 12.15 5.416 3.672 1.724 7.856 3.639 9.3 4.258 1.812.777 1.669.994-1.508 2.28-1.539.623-2.724 1.253-2.634 1.4s-.222.294-.696.327c-1.367.096-5.846 2.242-5.58 2.673.133.215.053.274-.178.131-.45-.278-2.046.3-5.979 2.163-1.361.645-2.586 1.173-2.722 1.173-.673 0-3.803 1.674-3.803 2.034 0 .227-.225.286-.5.131-.384-.217-.392-.165-.034.222.372.403.896.302 2.6-.502 4.508-2.127 6.999-3.237 8.734-3.891.99-.373 2.48-1.064 3.312-1.536s1.689-.858 1.905-.858 1.696-.607 3.288-1.35c4.169-1.944 5.783-2.65 6.055-2.65.132 0 .24 10.703.24 23.783v23.784l-1.958-.984c-1.077-.54-2.086-.983-2.243-.983s-1.39-.522-2.742-1.161c-7.245-3.422-9.465-4.439-9.692-4.439-.138 0-1.41-.553-2.828-1.23l-2.577-1.23-1.606.837c-.884.461-1.775.734-1.98.607s-.374.023-.374.333c0 .543-1.391 1.252-8.8 4.484-1.87.816-4.367 1.914-5.548 2.441s-2.217.958-2.3.958c-.084 0-.152-3.322-.152-7.381 0-9.336.264-8.796-5.645-11.559l-4.755-2.223v-13.395c0-12.829.192-15.072 1.159-13.509.148.24 1.163.819 2.255 1.287s3.1 1.374 4.461 2.015 2.565 1.165 2.676 1.165 1.753.72 3.649 1.6 3.522 1.6 3.614 1.6c.091 0 1.332.534 2.757 1.187 4.123 1.888 5.538 2.437 5.746 2.229.107-.106-.326-.391-.962-.632-1.279-.486-9.751-4.226-13.656-6.029-1.376-.635-2.605-1.155-2.731-1.155-.127 0-1.54-.63-3.141-1.4s-3.117-1.4-3.369-1.4-.458-.27-.458-.6.187-.6.415-.6c.366 0 3.757-1.47 10.696-4.637 1.161-.529 2.195-.963 2.297-.963.198 0 7.288-3.125 9.992-4.403.88-.417 1.397-.766 1.15-.777-.44-.02-2.097.675-7.35 3.08-4.745 2.173-4.2 4.091-4.2-14.787v-16.477l-1-.278c-.55-.153-.775-.296-.5-.318s.5-.191.5-.376c0-.416-2.027-1.371-2.31-1.088-.113.114.173.347.636.518 1.161.43-.429 2.092-2.021 2.113-.278.003-1.765.633-3.305 1.399s-2.93 1.393-3.089 1.394-1.959.787-4 1.749-4.116 1.874-4.611 2.027-.9.416-.9.584c0 .169-.248.307-.552.307-.303 0-1.428.419-2.5.932-2.638 1.263-3.815 1.179-7.477-.535-1.721-.805-3.21-1.464-3.309-1.464s-1.723-.72-3.61-1.6-3.523-1.6-3.635-1.6-1.308-.522-2.66-1.159a120 120 0 0 0-4.657-2.063c-2.965-1.219-3.591-1.802-2.345-2.188.52-.161 2.426-.99 4.237-1.841 1.81-.852 3.493-1.549 3.738-1.549s.924-.322 1.508-.715c.584-.394 2.052-1.054 3.262-1.468s2.29-.856 2.4-.985c.209-.243 1.756-.984 3.3-1.579.495-.191 2.115-.928 3.6-1.638l2.7-1.291 2.5 1.198c6.481 3.107 8.579 4.078 8.812 4.078.139 0 2.711 1.179 5.716 2.621s5.551 2.534 5.657 2.427c.182-.181-1.514-1.029-5.368-2.683-.926-.397-1.914-1.092-2.196-1.544s-.83-.821-1.217-.821-.704-.18-.704-.4-.354-.4-.786-.4c-.877 0-3.74-1.233-3.947-1.7-.074-.165-.391-.3-.706-.3s-.884-.155-1.266-.345-1.73-.849-2.995-1.466-2.3-1.272-2.3-1.456c0-.442-1.736-.429-2.22.018-.679.626-4.194 2.449-4.723 2.449-.688 0-3.529 1.395-3.302 1.621.16.162-.697.32-2.655.49-.385.033-.7.202-.7.375s-.27.314-.6.314-.6.18-.6.4-.345.4-.767.4c-.421 0-.826.135-.9.3-.262.59-2.675 1.7-3.695 1.7-.571 0-1.038.18-1.038.4s-.36.4-.8.4-.8.166-.8.368c0 .308-1.918.95-2.59.868-.112-.014-.841.332-1.619.769-.779.437-1.689.795-2.025.795-.535 0-.594 1.503-.487 12.348l.121 12.348-2-1.048c-1.1-.576-2.06-1.183-2.133-1.348-.074-.165-.361-.3-.639-.3s-1.07-.282-1.761-.627c-.691-.344-1.467-.497-1.724-.338-.292.181-.359.115-.178-.178.187-.303-.143-.553-.938-.712-.675-.135-1.227-.403-1.227-.595 0-.193-.355-.35-.788-.35s-1.429-.36-2.212-.8-1.698-.8-2.031-.8-1.353.36-2.263.8c-.911.44-1.883.8-2.16.8s-1.35.45-2.384 1c-1.035.55-2.304 1-2.822 1-.517 0-.94.18-.94.4s-.255.4-.567.4-.626.142-.7.316c-.206.49-4.658 2.484-5.544 2.484-.434 0-.789.18-.789.4s-.36.4-.8.4-.8.164-.8.365c0 .347-3.035 1.079-3.73.9-.181-.047-.215.1-.076.325.139.226-.027.41-.37.41s-.624.18-.624.4-.36.4-.8.4-.8.18-.8.4-.36.4-.8.4c-.793 0-.799.234-.703 26.9l.097 26.9.106-26.383c.104-25.941.233-28.487 1.345-26.517.48.851 1.221.938.902.106q-.229-.595.908-1.027c.626-.238 2.627-1.14 4.449-2.006 1.821-.865 3.415-1.573 3.542-1.573s1.558-.63 3.181-1.4 3.146-1.4 3.385-1.4 1.189-.42 2.111-.932c.922-.513 2.577-1.263 3.677-1.666 1.1-.404 2.171-.884 2.38-1.068.918-.807 1.925-.521 8.02 2.275 1.54.706 3.43 1.52 4.2 1.807.77.288 1.85.819 2.4 1.18s3.385 1.717 6.3 3.013c5.678 2.526 5.988 2.793 4.031 3.475-.697.243-2.272.951-3.5 1.574-1.227.623-2.366 1.134-2.53 1.137-.354.006-6.511 2.704-10.535 4.617-1.558.741-3.793 1.726-4.967 2.188l-2.133.841-2.033-.859a512 512 0 0 1-5.133-2.221c-1.705-.748-4.585-2.01-6.4-2.803a685 685 0 0 1-6.826-3.041c-1.939-.88-3.629-1.496-3.755-1.369-.127.126.29.426.926.666.635.24 2.505 1.035 4.155 1.766s4.53 2.003 6.4 2.826c1.87.822 4.39 1.942 5.6 2.487s2.92 1.269 3.8 1.609 1.771.771 1.98.958.659.34 1 .34c.558 0 .6 5.281.42 52.7-.199 52.417-.204 52.699-1 52.579-2.437-.367-3.617-.322-4.555.172-1.733.913-9.224 4.149-9.605 4.149-1.237 0-.397 2.334.859 2.387.165.007 1.875.714 3.8 1.571l11.236 5c7.459 3.319 9.336 3.898 9.865 3.042.136-.22.509-.4.828-.4.32 0 1.885-.604 3.477-1.343s3.705-1.673 4.695-2.076c3.042-1.239 3.53-1.923 1.829-2.57-.534-.203-2.874-1.273-5.2-2.379l-4.229-2.009v-39.588c0-40.708.007-40.877 1.557-39.474.388.351.831.639.985.639.153 0 2.005.818 4.116 1.817 2.111 1 4.041 1.741 4.29 1.647s.092-.304-.348-.467c-1.707-.633-8.018-3.522-8.353-3.824-.194-.176.526-.705 1.6-1.176 1.799-.79 4.174-1.846 10.264-4.565 1.271-.568 2.395-1.032 2.497-1.032.249 0 8.2-3.507 9.087-4.008.89-.502 2.52-.503 3.41 0 .382.215 2.405 1.133 4.495 2.039s5.06 2.241 6.6 2.967 3.88 1.812 5.2 2.413 3.48 1.587 4.8 2.192l2.4 1.1-2.493 1.098c-1.371.604-2.424 1.21-2.339 1.348.086.138-.232.278-.706.311-1.367.096-5.846 2.242-5.58 2.673.133.215.047.271-.19.124-.459-.284-.992-.093-5.628 2.011-1.614.732-3.029 1.332-3.142 1.332-.114 0-1.341.541-2.727 1.202-1.53.731-2.795 1.096-3.222.932-.481-.184-.613-.122-.415.198.159.257.504.468.766.468.366 0 .452 9.178.372 39.611-.114 43.713-.3 40.764 2.464 39.212.805-.453 1.641-.823 1.857-.823s1.696-.621 3.288-1.379c3.682-1.754 4.826-2.03 5.537-1.334.817.799 4.302 2.354 5.833 2.603l1.325.215.006-34.953c.006-34.522.097-37.035 1.278-35.461.284.378 1.776 1.215 3.316 1.86s4.465 1.896 6.5 2.78 3.7 1.52 3.7 1.413-1.215-.735-2.7-1.395a242 242 0 0 1-4.741-2.175c-1.122-.536-2.732-1.214-3.577-1.507-1.924-.666-2.181-1.341-.715-1.873a29 29 0 0 0 1.933-.785c.44-.206 3.14-1.391 6-2.634a577 577 0 0 0 7.755-3.43 180 180 0 0 1 4.6-2.023c1.125-.469 2.216-1.003 2.425-1.187.505-.445 2.514-.43 2.793.021.121.195.697.475 1.281.622.585.147 2.431.908 4.104 1.691l6.35 2.978c1.819.854 3.409 1.553 3.534 1.553.667 0 8.143 3.845 8.045 4.138-.063.191-1.099.747-2.301 1.237a110 110 0 0 0-3.586 1.535c-3.708 1.706-9.496 4.215-10.306 4.466-.509.158-.788.471-.638.715.159.257.081.317-.193.148-.254-.157-.957-.024-1.562.296s-2.308 1.067-3.783 1.66l-2.682 1.08-2.245-1.062c-1.235-.584-2.441-.996-2.682-.916-.24.08.447.475 1.527.877s2.135.888 2.344 1.079.659.347 1 .347c.557 0 .609 4.074.516 39.8-.068 26.163.032 39.8.294 39.8.218 0 2.065-.742 4.104-1.649 2.038-.907 4.156-1.672 4.706-1.7s1.095-.177 1.212-.331 3.806-1.875 8.2-3.824l7.988-3.544.116-3.476c.096-2.908.222-3.476.771-3.476.758 0 3.417.882 3.713 1.232.392.463 4.909 2.368 5.615 2.368.395 0 .778.135.852.3.244.549 4.519 2.513 5.457 2.506.515-.003.814.171.676.394-.14.227.196.4.776.4.563 0 1.024.145 1.024.323 0 .431 2.863 1.677 3.854 1.677.432 0 .991.205 1.242.456.34.34.914.239 2.275-.4 1.001-.471 1.902-.856 2.001-.856s1.732-.72 3.628-1.6 3.521-1.6 3.612-1.6c.166 0 .785-.276 8.877-3.958 2.469-1.123 4.674-2.042 4.9-2.042.479 0 .522-.424.105-1.019-.351-.5-4.575-2.581-5.239-2.581-.462 0-2.071-.799-2.455-1.219-.354-.387-5.233-2.381-5.826-2.381-.316 0-.574-.136-.574-.302 0-.3-1.078-.84-3.4-1.706-.66-.246-2.343-.993-3.74-1.659-1.639-.782-2.951-1.152-3.7-1.042-.783.115-1.16-.002-1.16-.36 0-.292-.315-.545-.7-.563-.48-.021-.53-.099-.161-.246.297-.118.963.012 1.48.288.752.403 1.206.404 2.261.006 2.244-.845 2.843-1.095 5.32-2.225 1.32-.602 2.85-1.277 3.4-1.499s1.81-.8 2.8-1.282c.99-.483 2.565-1.117 3.5-1.408.935-.292 1.7-.66 1.7-.819s.397-.394.883-.52c.485-.127.783-.331.661-.452-.217-.218-1.715.374-6.672 2.636-1.39.634-2.604 1.153-2.698 1.153s-1.535.63-3.202 1.4-3.109 1.4-3.206 1.4-.983.38-1.97.844l-1.796.844-1.796-.844c-.987-.464-1.877-.844-1.976-.844s-1.743-.725-3.653-1.612c-2.229-1.034-3.777-1.526-4.324-1.373q-.845.234-.34-.119c.74-.516-4.868-3.016-6.034-2.69q-.877.246-.358-.115c.367-.256-.457-.809-2.8-1.881l-3.319-1.518 1.6-.735c3.976-1.825 7.712-3.48 8.96-3.97 1.121-.44 1.232-.579.627-.792-.528-.185-.596-.342-.243-.56.27-.167.718-.116.995.114.353.293.795.269 1.482-.082a34 34 0 0 1 2.379-1.059c.77-.307 2.706-1.154 4.302-1.883 3.062-1.398 4.098-1.618 4.098-.869 0 .491 1.171 1.51 1.758 1.531.198.007-.072-.427-.6-.965-.527-.539-1.404-1.439-1.95-2-.545-.562-1.137-1.022-1.315-1.022-.618 0-6.693-2.913-6.693-3.209 0-.164.405-.406.9-.539 1.252-.335 1.583-.31 1.328.103-.263.426 3.506 2.332 5.334 2.697l1.296.26.029-3.356c.016-1.846.095-20.231.175-40.856s.248-37.5.373-37.5 1.575.648 3.222 1.44c1.648.793 3.099 1.338 3.225 1.212s-.201-.396-.727-.598c-5.18-2-5.168-1.914-.555-3.945 9.759-4.295 14.049-6.23 14.4-6.492.22-.164 1.367-.639 2.55-1.055s2.236-.981 2.342-1.257.346-.405.534-.289.668.007 1.067-.242c.587-.367 1.195-.216 3.166.786 1.342.682 2.543 1.24 2.669 1.24.229 0 3.909 1.668 9.353 4.239 1.585.749 3.004 1.361 3.154 1.361s1.508.63 3.019 1.4 3.017 1.4 3.346 1.4c1.181 0 .572 1.252-.9 1.853-1.759.717-7.627 3.324-11.218 4.983-1.385.64-2.619 1.164-2.743 1.164s-1.33.522-2.682 1.159c-1.351.638-3.404 1.56-4.561 2.051l-2.103.892-2.451-1.063c-1.348-.585-2.536-.978-2.64-.875-.191.191 1.263.865 4.001 1.855l1.497.542v42.519c0 36.288.083 42.52.563 42.52.31 0 2.297-.81 4.415-1.8 2.119-.99 3.935-1.8 4.036-1.8s1.547-.63 3.214-1.4 3.091-1.4 3.166-1.4 1.456-.609 3.07-1.354a424 424 0 0 1 5.436-2.454l2.5-1.101v-12.146c0-6.68.135-12.146.3-12.147.468-.003 4.276 1.369 4.5 1.621.646.729 6 2.74 6 2.254 0-.293-2.408-1.473-3.005-1.473-.265 0-1.69-.63-3.167-1.4s-2.942-1.4-3.255-1.4c-.485 0-.583-4.454-.671-30.481l-.102-30.48-1.6-.774c-.88-.426-2.05-.975-2.6-1.219s-1.09-.544-1.2-.666c-.388-.43-3.129-1.58-3.766-1.58-.587 0-2.142-.708-2.634-1.2-.536-.535-2.953-1.6-3.632-1.6-.423 0-.768-.18-.768-.4s-.36-.4-.8-.4-.8-.138-.8-.306c0-.372-2.97-1.694-3.808-1.694-.585 0-2.186-.761-2.592-1.232-.11-.128-.785-.487-1.5-.798s-1.303-.746-1.306-.968q-.006-.402-.3-.001c-.162.22-.834.67-1.494.999s-1.29.698-1.4.819-1.325.554-2.7.964c-2.268.675-2.693.995-2.547 1.917.078.499-.674.336-.847-.183-.107-.32-.481-.185-1.109.4-2.279 2.123-2.202 2.646-2.188-14.917.013-15.351.009-15.382-1.709-15.394-.495-.003-.9-.165-.9-.359 0-.195-.315-.454-.7-.576-.759-.24-2.976-1.523-3.3-1.909-.11-.132-.74-.367-1.4-.523-1.591-.376-3.4-1.17-3.4-1.492 0-.142-.627-.376-1.394-.519-1.452-.273-4.708-1.807-4.939-2.328-.074-.165-.389-.3-.7-.3-.312 0-.567-.18-.567-.4s-.281-.4-.624-.4-.509-.185-.369-.411c.164-.265-.206-.33-1.042-.183-.713.126-1.402.086-1.531-.089-.929-1.259-5.634-2.693-5.634-1.717 0 .22-.341.4-.757.4-.417 0-.846.232-.955.515s-.884.562-1.724.618c-.839.057-1.759.297-2.045.534-.285.237-.524.274-.531.082s-.196-.034-.42.351-.654.7-.955.7-.606.135-.68.3c-.073.165-.718.625-1.433 1.023l-1.3.722-.006-18.122c-.007-20.454.303-18.603-3.394-20.296-6.16-2.82-7.387-3.439-7.393-3.727-.004-.165-.407-.3-.896-.3s-2.244-.655-3.9-1.456a944 944 0 0 0-5.211-2.5c-1.21-.574-2.26-1.179-2.333-1.344s-.558-.3-1.077-.3-1.054-.18-1.19-.4-.957-.4-1.824-.4-1.576.18-1.576.4m27.904 30.597c.109 18.337.053 19.003-1.604 19.003-.207 0-1.704.63-3.327 1.4s-3.032 1.4-3.132 1.4c-.773 0-6.19 2.889-6.389 3.408-.138.361-.252 6.403-.252 13.425 0 13.476-.072 13.969-1.82 12.433-.209-.184-1.19-.634-2.18-1s-2.97-1.266-4.4-2l-2.6-1.334-.103-26.604-.103-26.604 1.618-.729c.891-.402 1.424-.849 1.187-.996-.237-.146.072-.273.685-.283 1.465-.022 6.144-2.147 5.834-2.649-.133-.215-.046-.27.193-.122.239.147 1.031.01 1.762-.305.73-.315 2.002-.867 2.827-1.225s1.5-.835 1.5-1.057c0-.223.161-.306.357-.185.345.214 2.888-.786 7.043-2.768 1.1-.524 2.18-.905 2.4-.846.257.069.437 6.378.504 17.638m-47.386-16.346c.438.439 7.217 3.348 7.392 3.172.16-.159-.847-.652-5.261-2.574-2.014-.877-2.565-1.031-2.131-.598m61.149 29.649c.142.32 5.265 2.9 5.759 2.9.162 0 1.212.432 2.334.961 10.849 5.11 12.655 5.874 13.183 5.572.251-.144.315-.105.141.085-.173.191.277.627 1 .968 2.018.953 1.435 1.669-2.684 3.298-.88.348-2.59 1.078-3.8 1.623a831 831 0 0 1-5.4 2.398c-1.76.773-4.865 2.146-6.901 3.05-4.182 1.859-4.91 1.95-7.124.892-.866-.414-2.385-1.11-3.375-1.548l-5.2-2.296a675 675 0 0 1-5.928-2.652c-1.39-.633-2.601-1.151-2.69-1.151s-1.362-.55-2.83-1.222c-2.825-1.294-2.867-1.735-.246-2.553.509-.159.788-.472.638-.716-.15-.242-.083-.319.151-.174.409.253.951.049 7.505-2.823 4.81-2.108 6.585-3.013 6.423-3.275-.081-.13.241-.257.715-.282.887-.047 3.506-.981 3.862-1.378.11-.122.83-.466 1.6-.764s1.571-.692 1.78-.877c.471-.416.911-.431 1.087-.036M143.4 132.02c1.32.519 2.58 1.068 2.8 1.22.22.153 2.74 1.303 5.6 2.558s6.775 2.983 8.701 3.841c1.925.859 3.677 1.561 3.894 1.561.253 0 .431 9.079.499 25.395.12 28.732.477 25.897-3.038 24.123-1.728-.872-1.34-.971-7.901 2.023-2.507 1.144-6.409 2.859-6.506 2.859-.027 0 .002-7.849.063-17.442.135-20.883.664-18.883-5.764-21.797-3.583-1.624-4.386-2.145-4.43-2.872-.171-2.826-.061-23.658.126-23.961.124-.2.975.067 1.891.592.916.526 2.745 1.381 4.065 1.9m47.4 15.109v16.329l-2.709 1.271c-1.489.699-2.835 1.271-2.989 1.271s-1.524.605-3.044 1.345c-1.52.739-3.222 1.46-3.783 1.6-2.308.58-2.275.37-2.275 14.484 0 7.478-.153 12.971-.362 12.971-.199 0-1.054-.349-1.9-.776a57 57 0 0 0-3.138-1.442 54 54 0 0 1-3.4-1.602l-1.8-.935-.11-24.323c-.125-27.443-.239-25.763 1.796-26.497.833-.301 2.594-1.037 3.914-1.637a570 570 0 0 1 10.926-4.81c1.536-.649 1.98-1 1.6-1.265-.37-.257-.289-.303.274-.155.44.116 1.97-.305 3.4-.934s2.825-1.162 3.1-1.184c.392-.031.5 3.471.5 16.289m33.4-7.575c4.998 2.378 7.787 3.646 8.02 3.646.108 0 1.741.72 3.628 1.6s3.491 1.6 3.564 1.6 1.28.531 2.682 1.18c1.403.649 3.035 1.365 3.627 1.59l1.076.409.102 52.507.101 52.506 1.196.207 1.197.208-1.457.447c-1.12.343-1.721.328-2.596-.066-.627-.283-2.49-1.132-4.14-1.888-1.65-.755-3.69-1.688-4.532-2.071-2.025-.921-1.898-1.509-1.776 8.275l.108 8.622 1.5-.516c.825-.284 1.5-.451 1.5-.372 0 .194-3.312 1.784-3.443 1.653-.057-.057-.219-10.541-.36-23.298-.279-25.314-.214-24.686-2.685-25.675l-1.512-.605V195.34c0-28.133.714-24.729-5.815-27.71-2.412-1.102-4.367-2.189-4.345-2.417s.067-6.548.1-14.046c.033-7.499.195-13.565.36-13.48s1.92.924 3.9 1.867m49 14.273v14.579l-3.3 1.579c-1.815.869-4.057 1.888-4.981 2.266-.925.377-1.613.797-1.53.932.084.135-.15.266-.518.292-.369.026-1.391.317-2.271.649l-1.6.602-.2 37.521-.2 37.522-1 .507c-5.389 2.729-9.657 4.276-10.057 3.646-.374-.591-.464-102.03-.091-103.422.133-.495.397-.9.587-.9s1.861-.72 3.713-1.6 3.48-1.6 3.616-1.6 1.771-.72 3.632-1.6 3.495-1.6 3.63-1.6c.136 0 1.535-.607 3.108-1.349s3.27-1.475 3.768-1.629c.509-.157.788-.469.638-.713s-.083-.318.157-.17c.234.144.847.103 1.362-.091 1.535-.58 1.537-.56 1.537 14.579m-126.4 23.93v17.758l-2.5 1.002c-1.375.551-3.67 1.539-5.1 2.196s-3.5 1.562-4.6 2.012l-2 .818-.116 34.528-.115 34.529-2.885 1.27-5.232 2.3c-1.292.566-2.508 1.03-2.702 1.03-.203 0-.31-22.149-.251-52.066l.101-52.065 1.2-.667c.66-.366 2.051-.99 3.092-1.385 1.067-.406 1.781-.899 1.638-1.13-.139-.226-.071-.298.153-.159s2.154-.491 4.29-1.398c2.135-.906 3.683-1.772 3.439-1.922-.244-.151.059-.28.672-.286.614-.007 2.376-.603 3.916-1.326 3.047-1.431 6.224-2.748 6.7-2.777.165-.011.3 7.972.3 17.738M92.493 162.8c0 .77.082 1.085.183.7s.1-1.015 0-1.4c-.101-.385-.183-.07-.183.7M312.4 218.222v42.223l-1.9.82a724 724 0 0 0-10.828 4.784c-1.39.633-2.604 1.151-2.698 1.151s-1.566.65-3.272 1.445c-3.709 1.728-6.506 2.955-6.735 2.955-.092 0-.167-18.999-.167-42.22v-42.221l1.5-.604c.825-.332 2.4-1.019 3.5-1.526s2.99-1.342 4.2-1.854c1.21-.513 2.79-1.257 3.512-1.653s1.489-.722 1.705-.722 1.696-.604 3.288-1.343 3.705-1.672 4.695-2.074 1.971-.877 2.18-1.057.524-.326.7-.326.32 19 .32 42.222m-43.6-38.888c1.43.701 3.32 1.576 4.2 1.946s2.848 1.219 4.373 1.889 2.842 1.15 2.925 1.066c.167-.166-2.238-1.435-2.72-1.435-.165 0-1.802-.701-3.639-1.558-6.745-3.147-10.551-4.56-5.139-1.908m-82.491 31.397-.109 7.439-1 .509c-.55.28-1.9.916-3 1.415l-2 .906-.102 31.624-.103 31.624-2.897 1.334c-1.594.733-3.708 1.65-4.698 2.038s-3.87 1.631-6.4 2.764-4.78 2.094-5 2.137c-.264.052-.4-13.193-.4-39.095v-39.173l1.8-1.095c.99-.602 2.031-1.109 2.313-1.127.282-.017 1.811-.661 3.398-1.431s3.024-1.4 3.192-1.4 1.61-.604 3.202-1.343a178 178 0 0 1 4.695-2.099 97 97 0 0 0 3.974-1.817c3.322-1.619 3.259-1.755 3.135 6.79M144.4 206.59c0 .34 7.258 3.485 7.495 3.248.178-.177-2.716-1.54-4.359-2.054a7.6 7.6 0 0 1-1.725-.838c-.796-.551-1.411-.706-1.411-.356m8.22 3.743c.64.56 5.476 2.505 5.692 2.289.111-.112-.138-.327-.555-.478-.416-.151-1.724-.696-2.907-1.21-2.276-.989-2.85-1.144-2.23-.601M92 218.758c-1.103.199-1.245.315-.671.546.653.263 2.271-.249 2.271-.718 0-.102-.045-.162-.1-.133s-.73.166-1.5.305m-3.4 1.825c-3.178.952-3.8 1.195-3.8 1.481 0 .441.693.433.968-.011.118-.192.928-.462 1.8-.602s1.697-.433 1.833-.652c.241-.391 0-.456-.801-.216m145 41.039v39.222l-2.3 1.004c-1.265.552-3.02 1.336-3.9 1.742s-2.95 1.316-4.6 2.023c-2.615 1.119-6.651 2.908-12.696 5.625-.932.419-1.787.762-1.9.762S208 294.287 208 272.637v-39.362l2.9-1.222c4.153-1.748 10.617-4.633 12.581-5.614.924-.461 1.835-.839 2.024-.839s1.592-.607 3.119-1.349c3.106-1.51 3.754-1.774 4.476-1.819.397-.025.5 8.062.5 39.19M79.676 224.41c-.728.444-1.481.711-1.672.592-.374-.23-1.008.527-.7.836.255.255 4.295-1.567 4.295-1.938.001-.485-.514-.349-1.923.51m-8.231 3.365c-.797.352-1 .606-.655.819.275.17.619.114.766-.123s.712-.609 1.255-.826c.544-.217.719-.391.389-.387s-1.12.236-1.755.517m124.955.328c.55.246 1.81.804 2.8 1.239s1.935.861 2.1.948.3.045.3-.091c0-.33-5.039-2.607-5.691-2.572-.28.015-.059.229.491.476m-129.081 1.659c-.704.256-1.409.595-1.566.752s-.627.286-1.043.286c-.417 0-.646.18-.51.4.228.369-.652.599-1.6.419-.238-.045-.224.103.033.365.314.321 1.024.166 2.6-.567 1.192-.555 2.482-1.011 2.867-1.013s.7-.274.7-.604-.045-.579-.1-.552-.676.257-1.381.514M54.72 235.68c.373.373.587.373.96 0s.267-.48-.48-.48-.853.107-.48.48m-2.22.602c-.495.096-.9.352-.9.569 0 .218-.18.285-.4.149s-.4.017-.4.34c0 .481.307.441 1.7-.225 2.44-1.165 2.44-1.303 0-.833m-6.579 3.054c-.294.294-.802.64-1.128.768-.519.204-.519.236.007.256.33.012 1.05-.33 1.6-.76s.788-.786.529-.791c-.26-.005-.713.232-1.008.527m278.086 1.34c.004.178.949.751 2.1 1.273s3.173 1.45 4.493 2.063c3.326 1.546 6.601 2.763 6.593 2.45-.008-.293-3.606-2.062-4.194-2.062-.208 0-1.732-.651-3.388-1.448s-3.461-1.642-4.011-1.881a61 61 0 0 1-1.3-.576c-.165-.078-.297.003-.293.181m-282.707.668c-.495.245-.9.583-.9.751 0 .442.71.375 1-.095.136-.22.586-.4 1-.4s.864-.18 1-.4c.319-.516-.941-.43-2.1.144m-2.8 1.368c-.495.079-.9.323-.9.543 0 .35 1.498.118 1.967-.305.308-.278-.161-.383-1.067-.238m52.1.684c-1.1.521-3.575 1.678-5.5 2.572s-3.5 1.721-3.5 1.839c0 .193 6.614 3.393 7.012 3.393.09 0 1.148.45 2.351 1 1.202.55 2.287 1 2.411 1s.226-2.43.226-5.4c0-6.063.123-5.883-3-4.404m2.6 4.404c0 2.53-.158 4.6-.35 4.6-.321 0-3.722-1.479-8.6-3.741l-1.951-.904 2.551-1.114c1.402-.613 3.63-1.631 4.95-2.263 3.537-1.692 3.4-1.83 3.4 3.422m-61.017-2.173c-.145.235-.525.327-.844.205-.324-.125-.473-.048-.336.173.138.224-.234.395-.859.395-.777 0-.978.126-.681.423.447.447 3.737-.713 3.737-1.317 0-.455-.713-.37-1.017.121m-3.37 6.473c.013 4.972.361 6.316 1.631 6.288.386-.009.342-.137-.144-.42-.61-.355-.7-1.076-.7-5.588 0-3.187-.154-5.18-.4-5.18s-.395 1.892-.387 4.9m311.404-4.584c-.127.127.34.47 1.037.763 1.646.693 1.955.384.395-.395-.661-.329-1.305-.495-1.432-.368m6.183 2.837c0 .195.315.465.7.601s.925.351 1.2.48c.275.128.5.038.5-.201 0-.238-.27-.433-.6-.433s-.6-.18-.6-.4-.27-.4-.6-.4-.6.159-.6.353m7.6 3.403c0 .123.54.503 1.2.844s1.2.457 1.2.257-.315-.475-.7-.611a16 16 0 0 1-1.2-.48c-.275-.128-.5-.132-.5-.01m5.025 2.203c-.096.157.353.484 1 .728.646.244 1.174.324 1.172.178-.005-.407-1.973-1.228-2.172-.906m3.775 7.031v4.991l-1.5.792c-.825.435-1.32.799-1.1.808s.985-.341 1.7-.777l1.3-.792v-5.006c0-2.753-.09-5.006-.2-5.006s-.2 2.246-.2 4.99m-331.6-4.266c0 .155.495.492 1.1.749 3.11 1.325 4.241 1.719 4.419 1.542.107-.108-.145-.32-.562-.471-.416-.151-1.702-.686-2.857-1.188s-2.1-.786-2.1-.632m224.1 1.158c-.495.096-.9.341-.9.546s-.315.366-.7.359c-.633-.011-.626-.068.076-.6.428-.323 1.148-.562 1.6-.533.75.05.743.071-.076.228m5.943 1.894c.353.354 5.557 2.584 5.557 2.382 0-.114-1.166-.737-2.591-1.383-2.411-1.093-3.39-1.423-2.966-.999m-222.443.581c0 .192.315.446.7.564l2.073.64c1.83.567 1.069-.07-1.073-.898-.935-.361-1.7-.499-1.7-.306m210.1.325c-.495.096-.9.341-.9.546s-.315.366-.7.359c-.633-.011-.626-.068.076-.6.428-.323 1.148-.562 1.6-.533.75.05.743.071-.076.228m19.7 2.518c2.106.975 2.781.975 1 0-.77-.422-1.67-.761-2-.754s.12.347 1 .754m-223.4-.094c0 .316 1.529 1.034 3.2 1.503 1.54.433.472-.384-1.5-1.146-.935-.361-1.7-.522-1.7-.357m197.3.376c-.495.096-.9.341-.9.546s-.371.372-.824.372-.712.18-.576.4c.138.224-.16.394-.676.388-.789-.011-.689-.158.676-.998.88-.542 1.96-.962 2.4-.933.693.045.679.075-.1.225m28.7.712c0 .093.585.437 1.3.765s2.875 1.315 4.8 2.193c3.627 1.654 4.13 2.163 2.6 2.628-.507.154-.691.361-.422.473.59.246 2.122-.535 2.122-1.081 0-.36-4.652-2.799-7.493-3.929a89 89 0 0 1-2.007-.829c-.495-.214-.9-.312-.9-.22M51.2 268c0 .22.276.4.613.4s.708.25.825.556c.131.339.54.47 1.05.337.533-.139.741-.064.574.207-.169.274.051.343.619.195.879-.23.878-.232-.1-.627a58 58 0 0 1-2.142-.932c-1.391-.642-1.439-.646-1.439-.136m305.28 2.86c-1.606.678-2.848 1.305-2.761 1.392.251.252 5.881-2.114 5.881-2.471 0-.25.129-.295-3.12 1.079m-297.28.74c0 .22.242.4.539.4.296 0 1.117.289 1.824.642s1.383.545 1.501.427c.19-.189-3.082-1.869-3.642-1.869-.122 0-.222.18-.222.4m73.288 5.057c.089 3.996.238 5.128.712 5.392 1.402.782 8.48 3.951 8.824 3.951.743 0 .357.752-.524 1.022-.495.152-2.209.884-3.809 1.627s-2.99 1.351-3.089 1.351-1.174.47-2.388 1.045l-2.208 1.046-1.799-.846c-.989-.465-1.908-.845-2.043-.845-.134 0-1.76-.72-3.612-1.6s-3.453-1.6-3.558-1.6-1.555-.63-3.222-1.4-3.111-1.4-3.21-1.4-1.75-.739-3.671-1.642l-3.491-1.643 1.2-.536c.66-.294 2.614-1.177 4.342-1.96 1.728-.784 3.574-1.533 4.104-1.666.529-.133 1.06-.402 1.181-.597.305-.493 2.338-.446 3.491.079.799.364 1.442.21 3.919-.939 1.63-.757 3.593-1.618 4.363-1.915a20 20 0 0 0 2.6-1.259c.66-.395 1.33-.72 1.488-.721.158 0 .338 2.275.4 5.056m217.554-3.023c-.527.211-.867.474-.756.586.234.233 2.314-.495 2.314-.81 0-.289-.431-.227-1.558.224M346.8 275.2c-.77.422-1.22.766-1 .766s1.03-.344 1.8-.766 1.22-.766 1-.766-1.03.344-1.8.766m-279.79-.016c-.145.234.088.416.534.416.435 0 1.12.116 1.523.259.5.176.606.127.333-.155-.634-.656-2.108-.977-2.39-.52m276.091 1.581c-.825.385-1.635.836-1.8 1.003-.4.402 3.19-.991 3.679-1.428.6-.537-.214-.353-1.879.425M71.6 277.2c0 .22.405.397.9.394.728-.005.785-.08.3-.394-.776-.501-1.2-.501-1.2 0m180.629 1.184c.864.431 1.391.785 1.171.786-.556.004-3.7-1.54-3.171-1.556.235-.008 1.135.339 2 .77m86.171.481c-.99.445-2.23.978-2.755 1.183-.526.206-.865.465-.755.576.111.11 1.531-.42 3.156-1.179 1.625-.758 2.774-1.381 2.554-1.384s-1.21.36-2.2.804m-263.2-.028c0 .2.165.363.367.363s.682.121 1.066.268c.439.168.602.112.439-.152-.342-.553-1.872-.944-1.872-.479m2.4 1.12c0 .244.36.443.8.443s.8.18.8.4.461.4 1.024.4c1.205 0 .987-.618-.318-.901a11 11 0 0 1-1.606-.49c-.422-.178-.7-.119-.7.148m4.576 1.863c.86.642 1.592.776 1.254.228-.12-.193-.625-.454-1.124-.58-.874-.22-.879-.208-.13.352m248.357.502c-2.446.995-2.581 1.376-.189.534 1.951-.687 3.023-1.282 2.223-1.234-.202.013-1.117.328-2.034.7M84.2 282.8c.136.22.517.4.847.4s.489-.18.353-.4-.517-.4-.847-.4-.489.18-.353.4m179.899 1.241a379 379 0 0 1 6.101 2.77c1.32.621 4.29 1.962 6.6 2.981 6.745 2.972 6.494 2.832 5.911 3.315-.491.408-6.523 3.293-6.885 3.293-.094 0-1.308.518-2.698 1.151s-4.058 1.822-5.928 2.642-4.367 1.922-5.548 2.449-2.375.958-2.652.958-1.47-.431-2.652-.958c-1.181-.527-3.678-1.627-5.548-2.445-18.36-8.031-17.068-7.084-12.357-9.057 2.02-.846 3.871-1.696 4.115-1.89.243-.194.892-.482 1.442-.642.55-.159 2.26-.881 3.8-1.605 1.54-.723 3.79-1.735 5-2.247a82 82 0 0 0 3.6-1.628c2.131-1.06 3.659-.879 7.699.913M86 283.6c0 .22.405.397.9.394.728-.005.785-.08.3-.394-.776-.501-1.2-.501-1.2 0m2.01.692c.012.39 2.824 1.808 3.078 1.553.104-.104-.548-.565-1.449-1.025-.902-.46-1.635-.698-1.629-.528m236.19.886c-.88.417-1.296.772-.924.79.372.017.788-.148.924-.368s.586-.4 1-.4.864-.18 1-.4c.36-.582-.191-.478-2 .378M180 288.4c0 1.54-.088 2.8-.196 2.8-.47 0-5.646-2.201-6.044-2.57-.309-.286.409-.798 2.4-1.712 3.895-1.788 3.84-1.809 3.84 1.482m-87.748-2.085c-.107.173.288.352.877.396.824.062.933-.009.471-.309-.734-.477-1.092-.5-1.348-.087m229.048.097c-.495.199-.9.458-.9.575 0 .388.637.221 1.424-.374.884-.67.761-.717-.524-.201m-226.89.722c.016.392 3.12 1.756 3.618 1.59.234-.078-.486-.528-1.601-.999s-2.022-.737-2.017-.591m223.777.664c-.668.294-2.198.976-3.4 1.517a892 892 0 0 1-5.387 2.39c-1.76.773-4.865 2.146-6.901 3.05-2.035.905-3.869 1.645-4.076 1.645s-.499.199-.649.443c-.366.591.825.199 4.394-1.445a424 424 0 0 1 6.032-2.707c1.76-.771 4.865-2.142 6.901-3.046 2.035-.905 3.869-1.645 4.076-1.645s.487-.18.623-.4c.319-.516-.108-.463-1.613.198m-216.333 3.204c-.133.349-.014.481.32.353.293-.113 1.211.079 2.041.425.829.347 1.595.543 1.702.436.107-.106-.281-.379-.862-.605l-2.021-.788c-.722-.282-1.02-.237-1.18.179m4.956 1.702c.015.464 4.738 2.582 5.293 2.375.307-.115.191-.29-.303-.458-.44-.15-1.745-.709-2.9-1.242-1.155-.534-2.096-.837-2.09-.675m8.99 4.416c.22.207.94.503 1.6.657.756.176 1.052.14.8-.097-.22-.207-.94-.503-1.6-.657-.756-.176-1.052-.14-.8.097m179 1.08c-.99.53-2.104.972-2.476.982s-.8.217-.95.461c-.189.304.023.35.676.145 1.419-.445 5.15-2.184 5.15-2.4 0-.354-.602-.151-2.4.812m-173.997.92c.004.344 1.962 1.28 2.677 1.28.286 0 .52.21.52.467 0 .256.114.353.253.214s.604-.065 1.034.165c.43.231.871.33.98.221s-.402-.473-1.135-.808c-2.673-1.222-4.332-1.812-4.329-1.539M287 301.619c-.88.415-2.124.941-2.765 1.169s-1.07.51-.954.626c.221.221 5.046-1.71 5.699-2.281.623-.546-.242-.333-1.98.486M128.4 302.8c0 .22.405.397.9.394.728-.005.785-.08.3-.394-.776-.501-1.2-.501-1.2 0m2.2.71c.22.22.85.531 1.4.69q1 .29.6-.11c-.22-.22-.85-.531-1.4-.69q-1-.29-.6.11m150 .909c-.88.415-2.124.941-2.765 1.169s-1.073.507-.961.619c.285.286 5.926-2.023 5.926-2.426 0-.303-.528-.15-2.2.638M134 305.2c.909.711 2 1.054 2 .629 0-.197-2.404-1.433-2.761-1.42-.132.005.211.361.761.791m2.4 1.2c0 .22.242.4.539.4.296 0 1.117.289 1.824.642s1.383.545 1.501.427c.19-.189-3.082-1.869-3.642-1.869-.122 0-.222.18-.222.4m136.8 1.324c-3.076 1.348-4.794 2.242-4.348 2.264.222.011 1.647-.593 6.248-2.645.715-.32 1.3-.662 1.3-.762 0-.264.06-.285-3.2 1.143m-132.4.676c0 .22.405.397.9.394.728-.005.785-.08.3-.394-.776-.501-1.2-.501-1.2 0m2 .728c0 .21.546.461 1.213.559 1.325.195 1.124-.235-.313-.669-.495-.15-.9-.1-.9.11m123.3 1.684c-.935.415-1.7.851-1.7.968 0 .266 3.262-.977 3.78-1.44.608-.544-.213-.358-2.08.472m-118.9.388c0 .22.371.4.824.4s.712-.18.576-.4-.507-.4-.824-.4-.576.18-.576.4m2 .8c0 .22.349.4.776.4s.875.158.994.352c.221.357 1.83.901 1.83.619 0-.175-3.051-1.771-3.384-1.771-.119 0-.216.18-.216.4m111.716 1.147c-1.367.599-2.627 1.231-2.8 1.404-.379.379 3.553-1.143 5.037-1.95 1.725-.937.421-.619-2.237.546M153.6 314c0 .22.405.397.9.394.728-.005.785-.08.3-.394-.776-.501-1.2-.501-1.2 0m2 .545c0 .279 5.257 2.731 5.448 2.541.105-.106-1.008-.753-2.473-1.439-2.692-1.26-2.975-1.365-2.975-1.102m99.2 1.344c-.33.124-1.86.796-3.4 1.493s-3.391 1.506-4.113 1.797-1.223.618-1.114.727.79-.079 1.513-.419 2.484-1.138 3.914-1.774c4.437-1.974 4.611-2.059 4.2-2.054-.22.002-.67.106-1 .23M162 317.6c0 .22.36.4.8.4s.8.18.8.4.315.406.7.413 1.049.277 1.476.6 1.148.575 1.6.56c.73-.024.71-.074-.176-.443-.55-.229-1.854-.847-2.897-1.373-2.137-1.078-2.303-1.118-2.303-.557m82.368 2.943c-.567.296-1.901.871-2.963 1.277s-1.738.802-1.501.881c.445.149 5.696-2.165 5.696-2.509 0-.273-.079-.25-1.232.351m-74.368.425c0 .397 3.253 1.881 3.73 1.702.266-.1.123-.3-.33-.46-.694-.245-2.133-.856-3.1-1.315-.165-.078-.3-.045-.3.073m67.968 2.375c-.567.296-1.901.871-2.963 1.277s-1.738.802-1.501.881c.445.149 5.696-2.165 5.696-2.509 0-.273-.079-.25-1.232.351m-61.568.581c0 .155.495.492 1.1.749 3.11 1.325 4.241 1.719 4.419 1.542.107-.108-.145-.32-.562-.471-.416-.151-1.702-.686-2.857-1.188s-2.1-.786-2.1-.632m6.401 2.769c0 .304 2.914 1.709 4.749 2.291.654.208.865.164.676-.141-.15-.244-.539-.443-.863-.443s-1.484-.453-2.576-1.007-1.987-.868-1.986-.7m44.999 1.135c-1.76.779-3.92 1.704-4.8 2.055-1.887.752-2.909 1.56-1.4 1.107.55-.165 2.467-.995 4.26-1.845s3.424-1.545 3.624-1.545c.375 0 2.072-1.168 1.716-1.182-.11-.005-1.64.63-3.4 1.41m-37.4 2.475c0 .332 3.679 1.751 3.919 1.512.128-.129-3.374-1.815-3.77-1.815-.082 0-.149.136-.149.303m4.4 1.885c0 .225 3.778 1.973 5.2 2.407 1.788.545.469-.297-2.287-1.46-2.899-1.223-2.913-1.228-2.913-.947m21.8.631c-.88.415-2.124.941-2.765 1.169s-1.078.502-.973.607c.199.2 5.34-1.864 5.806-2.33.461-.46-.412-.227-2.068.554m-7.13 3.092c-2.368 1.055-3.294 1.04-5.97-.099-.424-.18-.7-.123-.7.145 0 .244.324.443.72.443s.899.179 1.118.398c.889.889 5.918-.218 7.542-1.66q.975-.868-2.71.773" fill="#695d50"/>
    <path d="M54 236.729c-.77.384-2.03.944-2.8 1.244-2.676 1.045-4.203 1.696-4.8 2.044-1.583.923-4.825 2.392-5.513 2.497-.423.064-1.247.43-1.83.812s-1.645.81-2.359.951-1.928.616-2.698 1.055a81 81 0 0 1-2.5 1.363c-1.655.848-1.623.87 6.002 4.266a1465 1465 0 0 1 10.098 4.537c1.65.756 3.18 1.421 3.4 1.478s1.21.486 2.2.954c.99.469 2.121.856 2.513.861s.816.279.942.609c.127.33.388.6.58.6s1.928.751 3.857 1.669 3.702 1.708 3.939 1.755 1.677.688 3.2 1.426 2.859 1.359 2.969 1.381 1.1.458 2.2.97c1.1.511 2.225.93 2.5.931s.5.151.5.335c0 .183.255.333.567.333s1.395.355 2.407.789c1.781.763 1.883.766 3.133.074.711-.393 2.013-1 2.893-1.347a100 100 0 0 0 3.876-1.675c1.252-.574 2.742-1.22 3.311-1.436l1.035-.394-.111-5.634-.111-5.635-2-.823c-1.1-.452-3.303-1.429-4.895-2.171s-3.09-1.348-3.329-1.348c-.238 0-.703-.27-1.033-.6s-.958-.6-1.395-.6-.685-.178-.551-.395c.14-.227-.02-.294-.373-.159-.368.141-.72-.031-.872-.427-.141-.368-.51-.567-.824-.447-.313.121-.463.046-.332-.165.13-.211-.266-.504-.88-.65s-1.345-.448-1.626-.669-.616-.295-.747-.164-.501-.025-.823-.347-.75-.482-.952-.357c-.203.125-.368.061-.368-.143 0-.455-3.967-2.145-4.402-1.876-.173.107-.425-.093-.559-.445-.14-.364-.502-.541-.842-.41-.329.126-.597.075-.597-.112 0-.188-1.035-.75-2.3-1.25s-2.457-1.047-2.649-1.215-.597-.211-.9-.095-.551.049-.551-.149c0-.199-.81-.695-1.8-1.103s-1.8-.895-1.8-1.082c0-.483-.407-.404-2 .389m279.9 11.427c-1.485.739-2.7 1.254-2.7 1.145 0-.11-.27.025-.6.299s-.6.389-.6.257c0-.133-.8.205-1.777.751s-2.042.992-2.367.992c-.324 0-.649.14-.723.31-.125.293-2.039 1.151-5.083 2.28-.742.276-1.167.614-.943.752.396.245 1.665-.236 6.821-2.589 1.39-.634 2.61-1.153 2.711-1.153s1.484-.603 3.072-1.34 3.474-1.568 4.189-1.848 1.3-.667 1.3-.861c0-.554-.423-.425-3.3 1.005m-74.969 5.644c.002 1.54.074 2.121.161 1.291s.085-2.09-.003-2.8-.16-.031-.158 1.509m56.369 2.507c-1.155.582-2.1 1.304-2.1 1.604 0 .455.093.453.558-.012.307-.307 1.432-.884 2.5-1.281 2.247-.837 3.064-1.429 1.922-1.394-.429.014-1.725.501-2.88 1.083m44.5 3.084c-2.407 1.134-1.812 1.329.73.239.988-.424 1.903-.664 2.033-.533.13.13.237.026.237-.23 0-.672-.732-.544-3 .524m-46.6-.061c0 .295.225.541.5.546.455.008 1.63.518 7.7 3.346 1.1.513 2.09.955 2.2.984.341.087 2.517 1.055 4.372 1.945.975.467 1.911.849 2.08.849s.533.225.808.5.813.5 1.196.5.808.18.944.4.597.4 1.024.4.776.18.776.4.281.4.624.4c.382 0 .514.193.341.5-.226.4-.175.4.256 0 .297-.275.867-.5 1.268-.5.804 0 5.911-2.22 5.911-2.569 0-.211-2.639.753-4.888 1.787-1.17.537-2.471.191-6.912-1.841-4.429-2.026-10.215-4.577-10.381-4.577-.182 0-5.868-2.59-7.119-3.242-.5-.261-.7-.212-.7.172m43 1.655c-2.195 1.037-6.763 3.05-9.784 4.312-1.641.686-2.794 1.31-2.564 1.387.366.122 1.871-.485 7.127-2.877a689 689 0 0 1 3.921-1.756c1.485-.661 2.7-1.302 2.7-1.426 0-.298-.014-.295-1.4.36m-176.553 31.872c-.026.361-.497.769-1.047.907s-1 .428-1 .644c0 .215-.371.392-.824.392s-.712.18-.576.4c.14.227-.196.4-.776.4-.563 0-1.024.174-1.024.387s-.236.297-.524.187c-.288-.111-1.149.223-1.913.741-.764.519-1.633.862-1.932.762-.326-.109-.431-.001-.263.271.18.291-.085.452-.744.452-.563 0-1.024.142-1.024.315s-.376.343-.836.378c-.461.034-1.316.382-1.9.773-.585.39-1.307.658-1.604.595s-.422.078-.277.312c.162.261-.143.427-.783.427-.576 0-.943.169-.815.376.128.206-.087.353-.476.325-.874-.062-4.605 1.336-4.321 1.62.113.113.005.447-.24.742-.285.343-.298.537-.037.537.225 0 1.954.72 3.841 1.6s3.511 1.6 3.61 1.6 1.498.604 3.109 1.343c1.611.738 4.459 2.017 6.329 2.842 1.87.824 4.361 1.928 5.536 2.452 1.623.723 2.321.854 2.9.543.523-.279.764-.278.764.006 0 .228-.219.414-.486.414-1.017 0 .755 1.135 3.986 2.552 7.495 3.288 10.01 4.399 12.1 5.348 1.21.548 3.01 1.348 3.999 1.777s2.383 1.057 3.097 1.395c1.265.601 1.408.568 5.601-1.283 2.367-1.044 7.54-3.321 11.495-5.058 10.415-4.576 10.191-4.314 5.408-6.3-1.21-.502-3.28-1.414-4.6-2.027-6.81-3.16-6.521-3.092-8.774-2.056-7.483 3.441-7.052 3.331-9.076 2.317-3.357-1.682-7.181-3.165-8.162-3.165-.572 0-.988-.232-.988-.55 0-.302-.185-.55-.41-.55-.226 0-2.071-.776-4.1-1.725a856 856 0 0 0-7.59-3.493l-3.9-1.767-.047-3.207c-.042-2.847-.584-6.646-.706-4.951" fill="#0c3a61"/>
    <path d="M338.577 247.562c.123.2.584.269 1.023.154 1.101-.288 1.002-.516-.224-.516-.563 0-.922.163-.799.362m14.347 6.679c.618.335 1.338.522 1.6.416s.15-.208-.248-.225-.612-.212-.476-.432c.143-.232-.226-.393-.876-.384l-1.124.016zm4.276 1.72c0 .538 2.336 1.266 2.615.815.128-.207-.273-.389-.891-.404-.989-.025-1.028-.07-.324-.372.709-.305.675-.347-.3-.372-.605-.015-1.1.134-1.1.333" fill="#2e749d"/>
  </g>
</svg>
